<?xml version="1.0" encoding="utf-8"?>
<!-- Generator: Adobe Illustrator 16.0.0, SVG Export Plug-In . SVG Version: 6.00 Build 0)  -->
<!DOCTYPE svg PUBLIC "-//W3C//DTD SVG 1.1//EN" "http://www.w3.org/Graphics/SVG/1.1/DTD/svg11.dtd">
<svg version="1.1" id="Layer_1" xmlns="http://www.w3.org/2000/svg" xmlns:xlink="http://www.w3.org/1999/xlink" x="0px" y="0px"
	 width="500px" height="500px" viewBox="0 0 500 500" enable-background="new 0 0 500 500" xml:space="preserve">
<g>
	<path d="M57.205,185.821c0-3.074,0.522-5.858,1.567-8.352c1.045-2.492,2.448-4.627,4.21-6.404c1.761-1.775,3.821-3.149,6.18-4.12
		c2.358-0.97,4.851-1.455,7.479-1.455c2.329,0,4.44,0.373,6.337,1.119c1.896,0.747,3.508,1.8,4.837,3.157
		c1.328,1.359,2.351,2.986,3.067,4.882c0.717,1.896,1.075,3.979,1.075,6.247c0,2.001-0.292,3.755-0.874,5.263
		s-1.336,2.77-2.262,3.784c-0.926,1.015-1.956,1.776-3.09,2.284c-1.135,0.508-2.255,0.761-3.359,0.761
		c-1.284,0-2.374-0.283-3.27-0.851c-0.896-0.567-1.448-1.418-1.657-2.553h-0.09c-0.687,0.896-1.522,1.628-2.508,2.194
		c-0.985,0.567-1.956,0.851-2.911,0.851c-1.642,0-2.993-0.574-4.053-1.724c-1.06-1.149-1.59-2.755-1.59-4.814
		c0-1.283,0.216-2.56,0.649-3.829c0.432-1.269,1.037-2.41,1.813-3.426c0.776-1.015,1.702-1.843,2.777-2.485
		c1.075-0.642,2.269-0.963,3.583-0.963c1.552,0,2.717,0.731,3.493,2.194h0.09l0.582-1.836h3.27l-1.926,9.449
		c-0.747,3.016,0,4.522,2.239,4.522c0.687,0,1.373-0.201,2.06-0.604c0.687-0.402,1.299-0.978,1.836-1.724
		c0.538-0.746,0.97-1.649,1.299-2.709c0.328-1.06,0.493-2.262,0.493-3.605c0-1.702-0.247-3.299-0.739-4.792
		c-0.493-1.492-1.239-2.799-2.239-3.919c-1.001-1.119-2.277-2.008-3.829-2.664c-1.553-0.657-3.389-0.985-5.509-0.985
		c-1.97,0-3.881,0.402-5.732,1.209c-1.852,0.806-3.493,1.948-4.926,3.426c-1.433,1.479-2.59,3.255-3.471,5.329
		c-0.881,2.076-1.321,4.396-1.321,6.965c0,2.209,0.343,4.149,1.03,5.821c0.687,1.673,1.627,3.067,2.821,4.188
		c1.194,1.119,2.598,1.963,4.21,2.53c1.612,0.566,3.329,0.851,5.15,0.851c1.254,0,2.493-0.172,3.717-0.515
		c1.224-0.344,2.329-0.784,3.314-1.321l1.209,2.866c-2.628,1.492-5.509,2.239-8.644,2.239c-2.21,0-4.307-0.344-6.292-1.03
		c-1.986-0.687-3.725-1.724-5.217-3.112c-1.493-1.389-2.68-3.105-3.56-5.15C57.645,190.965,57.205,188.569,57.205,185.821z
		 M70.282,185.777c0,1.225,0.246,2.112,0.739,2.664c0.493,0.554,1.157,0.829,1.993,0.829c0.537,0,1.089-0.18,1.657-0.537
		c0.567-0.358,1.194-0.956,1.881-1.792l1.165-6.583c-0.657-1.045-1.478-1.567-2.463-1.567c-0.776,0-1.471,0.224-2.082,0.672
		c-0.612,0.448-1.135,1.016-1.568,1.702c-0.433,0.687-0.761,1.44-0.985,2.261C70.394,184.248,70.282,185.031,70.282,185.777z"/>
	<path d="M100.019,169.117c-0.926,0-1.687-0.269-2.284-0.806s-0.896-1.238-0.896-2.104s0.298-1.575,0.896-2.128
		c0.597-0.552,1.358-0.828,2.284-0.828c0.925,0,1.687,0.276,2.284,0.828c0.597,0.553,0.896,1.262,0.896,2.128
		s-0.299,1.567-0.896,2.104C101.706,168.849,100.944,169.117,100.019,169.117z M97.421,172.969h5.15v21.989h-5.15V172.969z"/>
	<path d="M109.154,172.969h4.255l0.358,3.001h0.179c0.925-0.985,1.933-1.821,3.023-2.508s2.321-1.03,3.695-1.03
		c1.612,0,2.903,0.344,3.874,1.03c0.97,0.687,1.708,1.657,2.217,2.911c1.044-1.135,2.134-2.075,3.269-2.821
		c1.134-0.746,2.403-1.12,3.807-1.12c2.329,0,4.045,0.754,5.15,2.262c1.104,1.508,1.657,3.665,1.657,6.472v13.793h-5.195v-13.122
		c0-1.82-0.276-3.104-0.829-3.851c-0.553-0.746-1.396-1.12-2.53-1.12c-1.374,0-2.911,0.911-4.613,2.732v15.36h-5.15v-13.122
		c0-1.82-0.276-3.104-0.829-3.851c-0.553-0.746-1.411-1.12-2.575-1.12c-1.374,0-2.911,0.911-4.613,2.732v15.36h-5.15V172.969z"/>
	<path d="M152.058,196.749v6.897h-5.15v-30.678h4.255l0.358,2.329h0.179c0.925-0.776,1.955-1.448,3.09-2.016
		c1.134-0.566,2.313-0.851,3.538-0.851c1.373,0,2.59,0.262,3.65,0.784c1.059,0.522,1.963,1.276,2.709,2.261
		c0.746,0.985,1.313,2.165,1.702,3.538c0.388,1.374,0.582,2.911,0.582,4.613c0,1.881-0.262,3.56-0.784,5.038
		c-0.522,1.478-1.217,2.717-2.083,3.717c-0.866,1.001-1.866,1.77-3,2.307c-1.135,0.537-2.314,0.806-3.538,0.806
		c-0.956,0-1.911-0.209-2.866-0.627c-0.956-0.417-1.881-1.015-2.776-1.791L152.058,196.749z M152.058,189.404
		c0.806,0.688,1.582,1.165,2.329,1.434c0.746,0.269,1.448,0.403,2.105,0.403c1.462,0,2.687-0.635,3.672-1.903
		s1.478-3.157,1.478-5.665c0-2.209-0.374-3.926-1.12-5.15c-0.747-1.224-1.956-1.836-3.627-1.836c-1.553,0-3.165,0.821-4.837,2.463
		V189.404z"/>
	<path d="M170.732,183.986c0-1.821,0.284-3.448,0.851-4.882c0.567-1.433,1.336-2.643,2.307-3.628
		c0.97-0.984,2.083-1.738,3.336-2.261s2.567-0.784,3.941-0.784c1.373,0,2.694,0.262,3.963,0.784c1.269,0.522,2.38,1.276,3.336,2.261
		c0.955,0.985,1.724,2.195,2.307,3.628c0.582,1.434,0.873,3.061,0.873,4.882s-0.291,3.448-0.873,4.881
		c-0.583,1.434-1.352,2.643-2.307,3.628c-0.956,0.985-2.068,1.731-3.336,2.239c-1.27,0.507-2.59,0.761-3.963,0.761
		c-1.374,0-2.687-0.254-3.941-0.761c-1.254-0.508-2.367-1.254-3.336-2.239c-0.971-0.985-1.74-2.194-2.307-3.628
		C171.016,187.435,170.732,185.808,170.732,183.986z M176.017,183.986c0,2.209,0.455,3.979,1.366,5.307
		c0.91,1.329,2.172,1.993,3.784,1.993s2.881-0.664,3.807-1.993c0.925-1.328,1.388-3.098,1.388-5.307
		c0-2.239-0.463-4.023-1.388-5.352c-0.926-1.328-2.194-1.993-3.807-1.993s-2.874,0.665-3.784,1.993
		C176.472,179.963,176.017,181.747,176.017,183.986z"/>
	<path d="M196.752,172.969h4.255l0.358,3.896h0.179c0.776-1.433,1.717-2.53,2.822-3.292c1.104-0.761,2.239-1.142,3.403-1.142
		c1.045,0,1.881,0.149,2.508,0.448l-0.896,4.479c-0.388-0.119-0.747-0.209-1.075-0.27c-0.329-0.06-0.732-0.089-1.209-0.089
		c-0.866,0-1.776,0.336-2.731,1.008c-0.956,0.671-1.777,1.844-2.463,3.515v13.436h-5.15V172.969z"/>
	<path d="M214.217,177.045h-3.135v-3.852l3.404-0.225l0.627-6.001h4.299v6.001h5.598v4.076h-5.598v10.479
		c0,2.568,1.03,3.852,3.09,3.852c0.388,0,0.784-0.045,1.187-0.134c0.403-0.09,0.769-0.209,1.097-0.358l0.896,3.807
		c-0.598,0.209-1.276,0.396-2.038,0.56c-0.761,0.164-1.575,0.246-2.44,0.246c-1.284,0-2.367-0.194-3.247-0.582
		c-0.881-0.388-1.598-0.933-2.149-1.635c-0.553-0.701-0.956-1.537-1.209-2.508c-0.254-0.97-0.38-2.052-0.38-3.247V177.045z"/>
	<path d="M244.849,166.386c-1.254,0.717-2.187,1.5-2.799,2.352c-0.612,0.851-0.918,1.948-0.918,3.291
		c0.089-0.029,0.224-0.045,0.403-0.045c0.806,0,1.5,0.247,2.083,0.739c0.583,0.493,0.874,1.172,0.874,2.038
		c0,0.956-0.276,1.709-0.829,2.262c-0.553,0.553-1.262,0.828-2.127,0.828c-1.135,0-2-0.433-2.597-1.299
		c-0.598-0.865-0.896-2.09-0.896-3.672c0-3.911,1.851-6.837,5.553-8.778L244.849,166.386z M254.119,166.386
		c-1.254,0.717-2.188,1.5-2.799,2.352c-0.612,0.851-0.918,1.948-0.918,3.291c0.089-0.029,0.224-0.045,0.403-0.045
		c0.806,0,1.5,0.247,2.082,0.739c0.584,0.493,0.875,1.172,0.875,2.038c0,0.956-0.277,1.709-0.83,2.262s-1.262,0.828-2.126,0.828
		c-1.135,0-2-0.433-2.598-1.299c-0.598-0.865-0.896-2.09-0.896-3.672c0-3.911,1.851-6.837,5.553-8.778L254.119,166.386z"/>
	<path d="M260.613,189.136c0.985,0.777,1.963,1.382,2.934,1.814c0.97,0.433,2.022,0.649,3.157,0.649
		c1.193,0,2.074-0.247,2.643-0.739c0.566-0.493,0.851-1.127,0.851-1.903c0-0.448-0.135-0.844-0.403-1.187
		c-0.269-0.344-0.627-0.649-1.074-0.919c-0.448-0.269-0.956-0.515-1.523-0.738s-1.135-0.455-1.701-0.694
		c-0.717-0.269-1.449-0.582-2.194-0.94c-0.747-0.358-1.411-0.791-1.993-1.299c-0.582-0.507-1.061-1.097-1.434-1.769
		s-0.56-1.471-0.56-2.396c0-1.94,0.717-3.522,2.149-4.747c1.434-1.224,3.389-1.836,5.867-1.836c1.522,0,2.896,0.269,4.12,0.807
		c1.224,0.537,2.284,1.149,3.18,1.836l-2.374,3.135c-0.776-0.567-1.56-1.022-2.351-1.366c-0.792-0.343-1.62-0.515-2.485-0.515
		c-1.105,0-1.919,0.231-2.441,0.694s-0.783,1.037-0.783,1.724c0,0.448,0.126,0.829,0.381,1.143c0.253,0.313,0.589,0.59,1.007,0.828
		c0.418,0.239,0.903,0.463,1.456,0.672c0.552,0.209,1.126,0.418,1.724,0.627c0.746,0.269,1.493,0.575,2.239,0.918
		c0.746,0.344,1.426,0.77,2.038,1.276c0.611,0.508,1.104,1.127,1.478,1.858s0.561,1.605,0.561,2.62c0,0.956-0.188,1.844-0.561,2.664
		c-0.373,0.822-0.918,1.538-1.635,2.15c-0.716,0.612-1.611,1.097-2.687,1.455s-2.3,0.537-3.673,0.537
		c-1.522,0-3.022-0.291-4.5-0.873c-1.479-0.582-2.755-1.306-3.829-2.172L260.613,189.136z"/>
	<path d="M279.691,172.969h4.254l0.358,3.896h0.18c0.775-1.433,1.716-2.53,2.821-3.292c1.104-0.761,2.239-1.142,3.403-1.142
		c1.045,0,1.881,0.149,2.508,0.448l-0.896,4.479c-0.389-0.119-0.747-0.209-1.075-0.27c-0.328-0.06-0.731-0.089-1.209-0.089
		c-0.866,0-1.776,0.336-2.731,1.008c-0.956,0.671-1.777,1.844-2.463,3.515v13.436h-5.15V172.969z"/>
	<path d="M294.514,183.986c0-1.821,0.298-3.448,0.896-4.882c0.598-1.433,1.403-2.643,2.419-3.628
		c1.015-0.984,2.187-1.738,3.516-2.261c1.328-0.522,2.724-0.784,4.188-0.784c1.433,0,2.679,0.246,3.739,0.739
		c1.06,0.492,1.963,1.097,2.709,1.813l-2.463,3.27c-0.598-0.508-1.194-0.903-1.791-1.188c-0.598-0.283-1.239-0.425-1.926-0.425
		c-1.792,0-3.24,0.665-4.345,1.993s-1.656,3.112-1.656,5.352c0,2.209,0.544,3.979,1.634,5.307c1.09,1.329,2.501,1.993,4.232,1.993
		c0.896,0,1.725-0.187,2.485-0.561c0.762-0.373,1.44-0.812,2.038-1.321l2.149,3.27c-1.045,0.926-2.194,1.628-3.448,2.105
		c-1.254,0.477-2.508,0.716-3.762,0.716c-1.493,0-2.889-0.254-4.188-0.761c-1.299-0.508-2.426-1.254-3.381-2.239
		c-0.956-0.985-1.702-2.194-2.239-3.628C294.782,187.435,294.514,185.808,294.514,183.986z"/>
	<path d="M324.341,163.161h3.493l-10.436,38.962h-3.493L324.341,163.161z"/>
	<path d="M329.939,189.047c0-2.358,1.029-4.18,3.09-5.464c2.06-1.283,5.344-2.179,9.853-2.688c0-0.566-0.075-1.111-0.224-1.634
		c-0.15-0.522-0.381-0.985-0.694-1.389s-0.717-0.717-1.209-0.94c-0.493-0.224-1.113-0.336-1.858-0.336
		c-1.105,0-2.173,0.209-3.202,0.627c-1.03,0.418-2.023,0.926-2.979,1.522l-1.881-3.448c1.224-0.776,2.59-1.448,4.098-2.016
		c1.507-0.566,3.142-0.851,4.904-0.851c2.776,0,4.836,0.813,6.18,2.44c1.344,1.628,2.016,3.979,2.016,7.054v13.032h-4.21
		l-0.403-2.418h-0.134c-0.985,0.836-2.038,1.538-3.157,2.104c-1.12,0.566-2.337,0.851-3.65,0.851c-1.941,0-3.516-0.589-4.725-1.769
		S329.939,190.987,329.939,189.047z M334.955,188.644c0,0.985,0.291,1.701,0.873,2.149s1.336,0.672,2.262,0.672
		c0.896,0,1.717-0.209,2.463-0.627s1.523-1.015,2.329-1.791v-4.927c-1.493,0.18-2.747,0.419-3.762,0.717
		c-1.016,0.299-1.829,0.635-2.44,1.008c-0.612,0.373-1.053,0.799-1.321,1.276C335.089,187.599,334.955,188.106,334.955,188.644z"/>
	<path d="M354.302,163.341h5.15v8.15l-0.135,3.672c0.925-0.806,1.933-1.462,3.022-1.97s2.202-0.762,3.337-0.762
		c1.373,0,2.598,0.262,3.672,0.784c1.075,0.522,1.985,1.269,2.732,2.239c0.746,0.97,1.313,2.143,1.702,3.515
		c0.387,1.374,0.582,2.911,0.582,4.613c0,1.881-0.262,3.561-0.784,5.038s-1.217,2.725-2.082,3.739
		c-0.866,1.016-1.866,1.792-3.001,2.329s-2.314,0.806-3.538,0.806c-1.015,0-2.037-0.239-3.067-0.716
		c-1.03-0.478-2.009-1.165-2.934-2.061h-0.134l-0.448,2.239h-4.075V163.341z M359.452,189.404c0.775,0.688,1.545,1.165,2.306,1.434
		c0.762,0.269,1.471,0.403,2.128,0.403c1.462,0,2.687-0.635,3.672-1.903s1.478-3.157,1.478-5.665c0-2.209-0.373-3.926-1.119-5.15
		c-0.747-1.224-1.956-1.836-3.628-1.836c-1.553,0-3.165,0.821-4.836,2.463V189.404z"/>
	<path d="M379.56,163.341h5.15v8.15l-0.135,3.672c0.925-0.806,1.933-1.462,3.022-1.97s2.202-0.762,3.337-0.762
		c1.373,0,2.598,0.262,3.672,0.784c1.075,0.522,1.985,1.269,2.732,2.239c0.746,0.97,1.313,2.143,1.702,3.515
		c0.387,1.374,0.582,2.911,0.582,4.613c0,1.881-0.262,3.561-0.784,5.038s-1.217,2.725-2.082,3.739
		c-0.866,1.016-1.866,1.792-3.001,2.329s-2.314,0.806-3.538,0.806c-1.015,0-2.037-0.239-3.067-0.716
		c-1.03-0.478-2.009-1.165-2.934-2.061h-0.134l-0.448,2.239h-4.075V163.341z M384.71,189.404c0.775,0.688,1.545,1.165,2.306,1.434
		c0.762,0.269,1.471,0.403,2.128,0.403c1.462,0,2.687-0.635,3.672-1.903s1.478-3.157,1.478-5.665c0-2.209-0.373-3.926-1.119-5.15
		c-0.747-1.224-1.956-1.836-3.628-1.836c-1.553,0-3.165,0.821-4.836,2.463V189.404z"/>
	<path d="M404.84,199.728c0.283,0.074,0.56,0.112,0.828,0.112c1.165,0,2.098-0.352,2.799-1.053c0.701-0.702,1.232-1.605,1.59-2.71
		l0.403-1.388l-8.644-21.721h5.24l3.807,10.793c0.328,0.956,0.649,1.964,0.963,3.023s0.634,2.112,0.963,3.157h0.179
		c0.269-1.015,0.545-2.053,0.829-3.112c0.283-1.06,0.56-2.083,0.828-3.068l3.314-10.793h4.971l-7.972,22.975
		c-0.448,1.254-0.94,2.373-1.478,3.358c-0.538,0.985-1.157,1.829-1.858,2.53c-0.702,0.701-1.509,1.239-2.419,1.612
		c-0.911,0.373-1.963,0.561-3.157,0.561c-0.598,0-1.119-0.038-1.567-0.112c-0.448-0.075-0.881-0.187-1.299-0.336l0.94-4.03
		C404.31,199.586,404.556,199.652,404.84,199.728z"/>
	<path d="M426.449,175.163c1.254-0.716,2.187-1.5,2.799-2.351c0.611-0.851,0.918-1.948,0.918-3.292
		c-0.09,0.03-0.224,0.045-0.403,0.045c-0.776,0-1.455-0.246-2.037-0.739c-0.583-0.492-0.874-1.171-0.874-2.037
		c0-0.955,0.269-1.709,0.807-2.262c0.537-0.552,1.238-0.829,2.104-0.829c1.135,0,2.008,0.434,2.62,1.299
		c0.611,0.866,0.918,2.091,0.918,3.673c0,3.911-1.866,6.837-5.598,8.777L426.449,175.163z M435.719,175.163
		c1.254-0.716,2.188-1.5,2.8-2.351c0.611-0.851,0.918-1.948,0.918-3.292c-0.09,0.03-0.225,0.045-0.403,0.045
		c-0.776,0-1.455-0.246-2.038-0.739c-0.582-0.492-0.873-1.171-0.873-2.037c0-0.955,0.269-1.709,0.807-2.262
		c0.537-0.552,1.238-0.829,2.104-0.829c1.135,0,2.008,0.434,2.62,1.299c0.611,0.866,0.918,2.091,0.918,3.673
		c0,3.911-1.866,6.837-5.599,8.777L435.719,175.163z"/>
	<path d="M447.139,200.287c1.434-0.567,2.545-1.328,3.337-2.284c0.791-0.955,1.187-2,1.187-3.135h-0.403
		c-0.866,0-1.634-0.275-2.306-0.828c-0.672-0.552-1.008-1.336-1.008-2.352c0-0.955,0.336-1.724,1.008-2.306
		c0.672-0.583,1.484-0.874,2.44-0.874c1.224,0,2.172,0.464,2.844,1.389c0.672,0.926,1.008,2.225,1.008,3.896
		c0,2.209-0.604,4.12-1.813,5.732c-1.21,1.612-2.934,2.806-5.173,3.582L447.139,200.287z M447.855,176.687
		c0-1.015,0.32-1.852,0.963-2.508c0.642-0.657,1.44-0.985,2.396-0.985c0.955,0,1.746,0.328,2.373,0.985
		c0.627,0.656,0.94,1.493,0.94,2.508s-0.313,1.852-0.94,2.508c-0.627,0.657-1.418,0.985-2.373,0.985
		c-0.956,0-1.755-0.328-2.396-0.985C448.176,178.538,447.855,177.701,447.855,176.687z"/>
	<path d="M61.493,273.175c0.328,0,0.633,0.061,0.914,0.182s0.525,0.285,0.732,0.492s0.369,0.451,0.486,0.732
		s0.176,0.582,0.176,0.902c0,0.312-0.059,0.607-0.176,0.885s-0.279,0.52-0.486,0.727s-0.451,0.371-0.732,0.492
		s-0.586,0.182-0.914,0.182c-0.312,0-0.605-0.061-0.879-0.182s-0.512-0.285-0.715-0.492s-0.363-0.449-0.48-0.727
		s-0.176-0.572-0.176-0.885c0-0.32,0.059-0.621,0.176-0.902s0.277-0.525,0.48-0.732s0.441-0.371,0.715-0.492
		S61.181,273.175,61.493,273.175z"/>
	<path d="M76.892,277.499v-7.758c0-1.305-0.484-1.957-1.453-1.957c-0.484,0-0.947,0.195-1.389,0.586s-0.908,0.922-1.4,1.594v7.535
		H69.79V260.94h2.859v4.078l-0.141,2.156c0.242-0.289,0.488-0.549,0.738-0.779s0.52-0.424,0.809-0.58s0.602-0.275,0.938-0.357
		s0.707-0.123,1.113-0.123c0.609,0,1.141,0.1,1.594,0.299s0.832,0.48,1.137,0.844s0.533,0.801,0.686,1.312s0.229,1.084,0.229,1.717
		v7.992H76.892z"/>
	<path d="M93.356,270.632c0,0.195-0.006,0.449-0.018,0.762s-0.029,0.605-0.053,0.879h-7.828c0,0.523,0.08,0.984,0.24,1.383
		s0.387,0.732,0.68,1.002s0.645,0.475,1.055,0.615s0.865,0.211,1.365,0.211c0.578,0,1.197-0.045,1.857-0.135
		s1.346-0.236,2.057-0.439v2.273c-0.305,0.086-0.637,0.164-0.996,0.234s-0.727,0.133-1.102,0.188s-0.754,0.096-1.137,0.123
		s-0.754,0.041-1.113,0.041c-0.906,0-1.719-0.129-2.438-0.387s-1.328-0.639-1.828-1.143s-0.883-1.127-1.148-1.869
		s-0.398-1.602-0.398-2.578c0-0.969,0.133-1.85,0.398-2.643s0.641-1.473,1.125-2.039s1.072-1.004,1.764-1.312
		s1.463-0.463,2.314-0.463c0.844,0,1.59,0.131,2.238,0.393s1.191,0.627,1.629,1.096s0.77,1.027,0.996,1.676
		S93.356,269.858,93.356,270.632z M90.45,270.222c0.008-0.469-0.051-0.877-0.176-1.225s-0.295-0.635-0.51-0.861
		s-0.465-0.395-0.75-0.504s-0.592-0.164-0.92-0.164c-0.719,0-1.309,0.24-1.77,0.721s-0.734,1.158-0.82,2.033H90.45z"/>
	<path d="M103.646,277.499l-0.07-1.559c-0.25,0.266-0.512,0.51-0.785,0.732s-0.574,0.416-0.902,0.58s-0.686,0.291-1.072,0.381
		s-0.811,0.135-1.271,0.135c-0.609,0-1.145-0.09-1.605-0.27s-0.848-0.43-1.16-0.75s-0.549-0.707-0.709-1.16s-0.24-0.953-0.24-1.5
		c0-0.562,0.119-1.082,0.357-1.559s0.602-0.887,1.09-1.23s1.098-0.613,1.828-0.809s1.588-0.293,2.572-0.293h1.559v-0.715
		c0-0.305-0.043-0.58-0.129-0.826s-0.225-0.455-0.416-0.627s-0.439-0.305-0.744-0.398s-0.68-0.141-1.125-0.141
		c-0.703,0-1.396,0.08-2.08,0.24s-1.346,0.385-1.986,0.674v-2.285c0.57-0.227,1.229-0.414,1.975-0.562s1.521-0.223,2.326-0.223
		c0.883,0,1.641,0.084,2.273,0.252s1.154,0.42,1.564,0.756s0.713,0.756,0.908,1.26s0.293,1.092,0.293,1.764v8.133H103.646z
		 M103.235,272.237h-1.746c-0.484,0-0.895,0.047-1.23,0.141s-0.609,0.223-0.82,0.387s-0.365,0.354-0.463,0.568
		s-0.146,0.443-0.146,0.686c0,0.484,0.156,0.854,0.469,1.107s0.738,0.381,1.277,0.381c0.398,0,0.812-0.145,1.242-0.434
		s0.902-0.703,1.418-1.242V272.237z"/>
	<path d="M116.864,277.499l-0.07-1.758c-0.25,0.305-0.508,0.582-0.773,0.832s-0.551,0.463-0.855,0.639s-0.631,0.312-0.979,0.41
		s-0.732,0.146-1.154,0.146c-0.703,0-1.328-0.141-1.875-0.422s-1.006-0.682-1.377-1.201s-0.654-1.15-0.85-1.893
		s-0.293-1.57-0.293-2.484c0-1.094,0.154-2.041,0.463-2.842s0.736-1.465,1.283-1.992s1.195-0.918,1.945-1.172
		s1.566-0.381,2.449-0.381c0.297,0,0.596,0.02,0.896,0.059s0.568,0.09,0.803,0.152v-4.652h2.859v16.559H116.864z M111.638,271.64
		c0,0.656,0.045,1.217,0.135,1.682s0.223,0.846,0.398,1.143s0.393,0.514,0.65,0.65s0.551,0.205,0.879,0.205
		c0.484,0,0.945-0.195,1.383-0.586s0.902-0.926,1.395-1.605v-5.203c-0.227-0.086-0.506-0.156-0.838-0.211s-0.666-0.082-1.002-0.082
		c-0.461,0-0.875,0.094-1.242,0.281s-0.682,0.453-0.943,0.797s-0.463,0.764-0.604,1.26S111.638,271.022,111.638,271.64z"/>
	<path d="M126.415,267.819h-3.363v-2.227h6.293v9.68h3.434v2.227h-10.137v-2.227h3.773V267.819z M129.579,262.335
		c0,0.258-0.047,0.5-0.141,0.727s-0.225,0.424-0.393,0.592s-0.365,0.301-0.592,0.398s-0.473,0.146-0.738,0.146
		s-0.514-0.049-0.744-0.146s-0.43-0.23-0.598-0.398s-0.299-0.365-0.393-0.592s-0.141-0.469-0.141-0.727s0.047-0.5,0.141-0.727
		s0.225-0.426,0.393-0.598s0.367-0.307,0.598-0.404s0.479-0.146,0.744-0.146s0.512,0.049,0.738,0.146s0.424,0.232,0.592,0.404
		s0.299,0.371,0.393,0.598S129.579,262.077,129.579,262.335z"/>
	<path d="M142.868,277.499v-7.758c0-1.305-0.484-1.957-1.453-1.957c-0.484,0-0.947,0.195-1.389,0.586s-0.908,0.922-1.4,1.594v7.535
		h-2.859v-11.906h2.473l0.07,1.758c0.242-0.305,0.494-0.582,0.756-0.832s0.545-0.463,0.85-0.639s0.633-0.311,0.984-0.404
		s0.746-0.141,1.184-0.141c0.609,0,1.141,0.1,1.594,0.299s0.832,0.48,1.137,0.844s0.533,0.801,0.686,1.312s0.229,1.084,0.229,1.717
		v7.992H142.868z"/>
	<path d="M157.892,267.679c0.219,0.273,0.373,0.561,0.463,0.861s0.135,0.607,0.135,0.92c0,0.664-0.115,1.25-0.346,1.758
		s-0.555,0.934-0.973,1.277s-0.918,0.604-1.5,0.779s-1.225,0.264-1.928,0.264c-0.414,0-0.797-0.041-1.148-0.123
		s-0.617-0.178-0.797-0.287c-0.133,0.133-0.246,0.279-0.34,0.439s-0.141,0.342-0.141,0.545c0,0.125,0.031,0.25,0.094,0.375
		s0.154,0.236,0.275,0.334s0.266,0.178,0.434,0.24s0.357,0.098,0.568,0.105l2.824,0.105c0.633,0.016,1.205,0.096,1.717,0.24
		s0.951,0.35,1.318,0.615s0.65,0.588,0.85,0.967s0.299,0.811,0.299,1.295c0,0.555-0.125,1.078-0.375,1.57s-0.627,0.92-1.131,1.283
		s-1.131,0.65-1.881,0.861s-1.621,0.316-2.613,0.316c-0.961,0-1.787-0.076-2.479-0.229s-1.258-0.365-1.699-0.639
		s-0.768-0.6-0.979-0.979s-0.316-0.795-0.316-1.248c0-0.273,0.035-0.527,0.105-0.762s0.176-0.459,0.316-0.674
		s0.316-0.424,0.527-0.627s0.461-0.406,0.75-0.609c-0.383-0.219-0.674-0.5-0.873-0.844s-0.299-0.711-0.299-1.102
		c0-0.266,0.035-0.514,0.105-0.744s0.162-0.451,0.275-0.662s0.244-0.414,0.393-0.609s0.305-0.387,0.469-0.574
		c-0.289-0.289-0.529-0.639-0.721-1.049s-0.287-0.924-0.287-1.541c0-0.664,0.119-1.256,0.357-1.775s0.568-0.957,0.99-1.312
		s0.924-0.625,1.506-0.809s1.217-0.275,1.904-0.275c0.352,0,0.689,0.018,1.014,0.053s0.619,0.096,0.885,0.182h4.125v2.086H157.892z
		 M151.153,279.081c0,0.461,0.232,0.801,0.697,1.02s1.119,0.328,1.963,0.328c0.539,0,0.994-0.051,1.365-0.152
		s0.674-0.234,0.908-0.398s0.402-0.355,0.504-0.574s0.152-0.445,0.152-0.68c0-0.211-0.049-0.389-0.146-0.533
		s-0.234-0.266-0.41-0.363s-0.383-0.172-0.621-0.223s-0.502-0.084-0.791-0.1l-2.52-0.047c-0.227,0.156-0.412,0.305-0.557,0.445
		s-0.258,0.279-0.34,0.416s-0.137,0.275-0.164,0.416S151.153,278.925,151.153,279.081z M151.634,269.53
		c0,0.633,0.186,1.135,0.557,1.506s0.889,0.557,1.553,0.557c0.352,0,0.658-0.059,0.92-0.176s0.479-0.273,0.65-0.469
		s0.301-0.422,0.387-0.68s0.129-0.527,0.129-0.809c0-0.664-0.186-1.182-0.557-1.553s-0.889-0.557-1.553-0.557
		c-0.352,0-0.658,0.059-0.92,0.176s-0.479,0.275-0.65,0.475s-0.301,0.432-0.387,0.697S151.634,269.241,151.634,269.53z"/>
	<path d="M183.392,282.151c-1.617,0-2.824-0.389-3.621-1.166s-1.195-2.01-1.195-3.697v-2.977c0-0.805-0.18-1.41-0.539-1.816
		s-0.957-0.609-1.793-0.609h-0.738v-2.215h0.738c0.422,0,0.781-0.045,1.078-0.135s0.539-0.229,0.727-0.416s0.322-0.428,0.404-0.721
		s0.123-0.643,0.123-1.049v-2.062c0-0.805,0.092-1.512,0.275-2.121s0.471-1.117,0.861-1.523s0.889-0.713,1.494-0.92
		s1.334-0.311,2.186-0.311h0.984v2.203h-0.738c-0.375,0-0.713,0.045-1.014,0.135s-0.561,0.236-0.779,0.439s-0.387,0.471-0.504,0.803
		s-0.176,0.744-0.176,1.236v2.051c0,0.586-0.049,1.086-0.146,1.5s-0.248,0.76-0.451,1.037s-0.461,0.492-0.773,0.645
		s-0.68,0.26-1.102,0.322c0.836,0.094,1.457,0.42,1.863,0.979s0.609,1.416,0.609,2.572v2.977c0,0.508,0.059,0.93,0.176,1.266
		s0.285,0.605,0.504,0.809s0.479,0.348,0.779,0.434s0.639,0.129,1.014,0.129h0.738v2.203H183.392z"/>
	<path d="M90.813,301.495c-0.023,0.219-0.041,0.453-0.053,0.703s-0.018,0.465-0.018,0.645c0,0.312,0.027,0.516,0.082,0.609
		s0.137,0.141,0.246,0.141c0.297,0,0.553-0.449,0.768-1.348s0.322-2.242,0.322-4.031c0-1.086-0.061-2.045-0.182-2.877
		s-0.314-1.529-0.58-2.092s-0.609-0.988-1.031-1.277s-0.93-0.434-1.523-0.434c-0.461,0-0.906,0.129-1.336,0.387
		s-0.834,0.619-1.213,1.084s-0.723,1.021-1.031,1.67s-0.574,1.365-0.797,2.15s-0.396,1.627-0.521,2.525s-0.188,1.832-0.188,2.801
		c0,1.156,0.09,2.172,0.27,3.047s0.439,1.605,0.779,2.191s0.75,1.027,1.23,1.324s1.025,0.445,1.635,0.445
		c0.297,0,0.592-0.02,0.885-0.059s0.596-0.102,0.908-0.188s0.637-0.203,0.973-0.352s0.699-0.336,1.09-0.562v2.238
		c-0.586,0.312-1.223,0.555-1.91,0.727s-1.395,0.258-2.121,0.258c-1.031,0-1.924-0.189-2.678-0.568s-1.377-0.947-1.869-1.705
		s-0.859-1.701-1.102-2.83s-0.367-2.443-0.375-3.943c-0.008-1.18,0.07-2.312,0.234-3.398s0.4-2.1,0.709-3.041
		s0.684-1.797,1.125-2.566s0.939-1.428,1.494-1.975s1.16-0.971,1.816-1.271s1.352-0.451,2.086-0.451
		c0.922,0,1.727,0.188,2.414,0.562s1.26,0.926,1.717,1.652s0.799,1.621,1.025,2.684s0.34,2.277,0.34,3.645
		c-0.008,1.359-0.086,2.525-0.234,3.498s-0.375,1.773-0.68,2.402s-0.688,1.092-1.148,1.389s-1.004,0.445-1.629,0.445
		c-0.922,0-1.508-0.449-1.758-1.348c-0.227,0.438-0.518,0.771-0.873,1.002s-0.752,0.346-1.189,0.346
		c-0.352,0-0.666-0.072-0.943-0.217s-0.516-0.373-0.715-0.686s-0.352-0.713-0.457-1.201s-0.158-1.076-0.158-1.764
		c0-0.5,0.02-1.012,0.059-1.535s0.109-1.033,0.211-1.529s0.238-0.965,0.41-1.406s0.393-0.826,0.662-1.154s0.594-0.588,0.973-0.779
		s0.822-0.287,1.33-0.287c0.266,0,0.525,0.029,0.779,0.088s0.459,0.123,0.615,0.193l1.746-0.375L90.813,301.495z M88.798,297.464
		c-0.039-0.039-0.102-0.072-0.188-0.1s-0.176-0.041-0.27-0.041c-0.25,0-0.459,0.143-0.627,0.428s-0.301,0.643-0.398,1.072
		s-0.168,0.898-0.211,1.406s-0.064,0.988-0.064,1.441c0,0.422,0.01,0.758,0.029,1.008s0.049,0.443,0.088,0.58
		s0.084,0.227,0.135,0.27s0.104,0.064,0.158,0.064c0.102,0,0.234-0.094,0.398-0.281s0.336-0.488,0.516-0.902L88.798,297.464z"/>
	<path d="M106.552,299.433c0,0.195-0.006,0.449-0.018,0.762s-0.029,0.605-0.053,0.879h-7.828c0,0.523,0.08,0.984,0.24,1.383
		s0.387,0.732,0.68,1.002s0.645,0.475,1.055,0.615s0.865,0.211,1.365,0.211c0.578,0,1.197-0.045,1.857-0.135
		s1.346-0.236,2.057-0.439v2.273c-0.305,0.086-0.637,0.164-0.996,0.234s-0.727,0.133-1.102,0.188s-0.754,0.096-1.137,0.123
		s-0.754,0.041-1.113,0.041c-0.906,0-1.719-0.129-2.438-0.387s-1.328-0.639-1.828-1.143s-0.883-1.127-1.148-1.869
		s-0.398-1.602-0.398-2.578c0-0.969,0.133-1.85,0.398-2.643s0.641-1.473,1.125-2.039s1.072-1.004,1.764-1.312
		s1.463-0.463,2.314-0.463c0.844,0,1.59,0.131,2.238,0.393s1.191,0.627,1.629,1.096s0.77,1.027,0.996,1.676
		S106.552,298.659,106.552,299.433z M103.646,299.022c0.008-0.469-0.051-0.877-0.176-1.225s-0.295-0.635-0.51-0.861
		s-0.465-0.395-0.75-0.504s-0.592-0.164-0.92-0.164c-0.719,0-1.309,0.24-1.77,0.721s-0.734,1.158-0.82,2.033H103.646z"/>
	<path d="M117.04,306.3l-2.719-4.008l-2.73,4.008h-3.457l4.465-6l-4.23-5.906h3.48l2.672,3.914l2.637-3.914h3.211l-4.102,5.883
		l4.324,6.023H117.04z"/>
	<path d="M132.392,306.183c-0.516,0.117-1.035,0.211-1.559,0.281s-1.02,0.105-1.488,0.105c-0.781,0-1.455-0.082-2.021-0.246
		s-1.035-0.414-1.406-0.75s-0.645-0.764-0.82-1.283s-0.264-1.139-0.264-1.857v-5.812h-3.199v-2.227h3.199v-3.047l2.93-0.762v3.809
		h4.629v2.227h-4.629v5.602c0,0.68,0.156,1.193,0.469,1.541s0.836,0.521,1.57,0.521c0.469,0,0.926-0.039,1.371-0.117
		s0.852-0.168,1.219-0.27V306.183z"/>
	<path d="M146.138,299.433c0,0.195-0.006,0.449-0.018,0.762s-0.029,0.605-0.053,0.879h-7.828c0,0.523,0.08,0.984,0.24,1.383
		s0.387,0.732,0.68,1.002s0.645,0.475,1.055,0.615s0.865,0.211,1.365,0.211c0.578,0,1.197-0.045,1.857-0.135
		s1.346-0.236,2.057-0.439v2.273c-0.305,0.086-0.637,0.164-0.996,0.234s-0.727,0.133-1.102,0.188s-0.754,0.096-1.137,0.123
		s-0.754,0.041-1.113,0.041c-0.906,0-1.719-0.129-2.438-0.387s-1.328-0.639-1.828-1.143s-0.883-1.127-1.148-1.869
		s-0.398-1.602-0.398-2.578c0-0.969,0.133-1.85,0.398-2.643s0.641-1.473,1.125-2.039s1.072-1.004,1.764-1.312
		s1.463-0.463,2.314-0.463c0.844,0,1.59,0.131,2.238,0.393s1.191,0.627,1.629,1.096s0.77,1.027,0.996,1.676
		S146.138,298.659,146.138,299.433z M143.231,299.022c0.008-0.469-0.051-0.877-0.176-1.225s-0.295-0.635-0.51-0.861
		s-0.465-0.395-0.75-0.504s-0.592-0.164-0.92-0.164c-0.719,0-1.309,0.24-1.77,0.721s-0.734,1.158-0.82,2.033H143.231z"/>
	<path d="M156.063,306.3v-7.758c0-1.305-0.484-1.957-1.453-1.957c-0.484,0-0.947,0.195-1.389,0.586s-0.908,0.922-1.4,1.594v7.535
		h-2.859v-11.906h2.473l0.07,1.758c0.242-0.305,0.494-0.582,0.756-0.832s0.545-0.463,0.85-0.639s0.633-0.311,0.984-0.404
		s0.746-0.141,1.184-0.141c0.609,0,1.141,0.1,1.594,0.299s0.832,0.48,1.137,0.844s0.533,0.801,0.686,1.312s0.229,1.084,0.229,1.717
		v7.992H156.063z"/>
	<path d="M169.646,306.3l-0.07-1.758c-0.25,0.305-0.508,0.582-0.773,0.832s-0.551,0.463-0.855,0.639s-0.631,0.312-0.979,0.41
		s-0.732,0.146-1.154,0.146c-0.703,0-1.328-0.141-1.875-0.422s-1.006-0.682-1.377-1.201s-0.654-1.15-0.85-1.893
		s-0.293-1.57-0.293-2.484c0-1.094,0.154-2.041,0.463-2.842s0.736-1.465,1.283-1.992s1.195-0.918,1.945-1.172
		s1.566-0.381,2.449-0.381c0.297,0,0.596,0.02,0.896,0.059s0.568,0.09,0.803,0.152v-4.652h2.859V306.3H169.646z M164.419,300.44
		c0,0.656,0.045,1.217,0.135,1.682s0.223,0.846,0.398,1.143s0.393,0.514,0.65,0.65s0.551,0.205,0.879,0.205
		c0.484,0,0.945-0.195,1.383-0.586s0.902-0.926,1.395-1.605v-5.203c-0.227-0.086-0.506-0.156-0.838-0.211s-0.666-0.082-1.002-0.082
		c-0.461,0-0.875,0.094-1.242,0.281s-0.682,0.453-0.943,0.797s-0.463,0.764-0.604,1.26S164.419,299.823,164.419,300.44z"/>
	<path d="M189.251,306.3h-2.332l10.875-16.559h2.32L189.251,306.3z M193.692,293.058c0,0.523-0.074,1.006-0.223,1.447
		s-0.361,0.824-0.639,1.148s-0.617,0.576-1.02,0.756s-0.857,0.27-1.365,0.27c-0.992,0-1.764-0.297-2.314-0.891
		s-0.826-1.473-0.826-2.637c0-0.523,0.072-1.006,0.217-1.447s0.355-0.824,0.633-1.148s0.617-0.578,1.02-0.762
		s0.857-0.275,1.365-0.275c0.992,0,1.766,0.297,2.32,0.891S193.692,291.886,193.692,293.058z M191.606,293.104
		c0-0.617-0.094-1.072-0.281-1.365s-0.465-0.439-0.832-0.439c-0.734,0-1.102,0.602-1.102,1.805c0,0.609,0.094,1.061,0.281,1.354
		s0.461,0.439,0.82,0.439C191.235,294.897,191.606,294.3,191.606,293.104z M199.739,302.89c0,0.523-0.074,1.006-0.223,1.447
		s-0.361,0.824-0.639,1.148s-0.617,0.576-1.02,0.756s-0.857,0.27-1.365,0.27c-0.992,0-1.764-0.295-2.314-0.885
		s-0.826-1.471-0.826-2.643c0-0.531,0.072-1.018,0.217-1.459s0.355-0.822,0.633-1.143s0.617-0.572,1.02-0.756
		s0.857-0.275,1.365-0.275c0.992,0,1.766,0.297,2.32,0.891S199.739,301.718,199.739,302.89z M197.653,302.937
		c0-0.617-0.094-1.072-0.281-1.365s-0.465-0.439-0.832-0.439c-0.734,0-1.102,0.602-1.102,1.805c0,0.617,0.094,1.07,0.281,1.359
		s0.461,0.434,0.82,0.434C197.282,304.729,197.653,304.132,197.653,302.937z"/>
	<path d="M204.579,294.394v7.758c0,0.648,0.121,1.139,0.363,1.471s0.609,0.498,1.102,0.498c0.477,0,0.936-0.197,1.377-0.592
		s0.908-0.928,1.4-1.6v-7.535h2.859V306.3h-2.473l-0.07-1.758c-0.25,0.305-0.504,0.582-0.762,0.832s-0.537,0.463-0.838,0.639
		s-0.629,0.312-0.984,0.41s-0.748,0.146-1.178,0.146c-0.609,0-1.143-0.1-1.6-0.299s-0.838-0.482-1.143-0.85
		s-0.533-0.807-0.686-1.318s-0.229-1.084-0.229-1.717v-7.992H204.579z"/>
	<path d="M216.263,301.19v-2.543h7.289v2.543H216.263z"/>
	<path d="M235.235,306.3v-7.758c0-1.305-0.484-1.957-1.453-1.957c-0.484,0-0.947,0.195-1.389,0.586s-0.908,0.922-1.4,1.594v7.535
		h-2.859v-16.559h2.859v4.078l-0.141,2.156c0.242-0.289,0.488-0.549,0.738-0.779s0.52-0.424,0.809-0.58s0.602-0.275,0.938-0.357
		s0.707-0.123,1.113-0.123c0.609,0,1.141,0.1,1.594,0.299s0.832,0.48,1.137,0.844s0.533,0.801,0.686,1.312s0.229,1.084,0.229,1.717
		v7.992H235.235z"/>
	<path d="M251.7,299.433c0,0.195-0.006,0.449-0.018,0.762s-0.029,0.605-0.053,0.879h-7.828c0,0.523,0.08,0.984,0.24,1.383
		s0.387,0.732,0.68,1.002s0.645,0.475,1.055,0.615s0.865,0.211,1.365,0.211c0.578,0,1.197-0.045,1.857-0.135
		s1.346-0.236,2.057-0.439v2.273c-0.305,0.086-0.637,0.164-0.996,0.234s-0.727,0.133-1.102,0.188s-0.754,0.096-1.137,0.123
		s-0.754,0.041-1.113,0.041c-0.906,0-1.719-0.129-2.438-0.387s-1.328-0.639-1.828-1.143s-0.883-1.127-1.148-1.869
		s-0.398-1.602-0.398-2.578c0-0.969,0.133-1.85,0.398-2.643s0.641-1.473,1.125-2.039s1.072-1.004,1.764-1.312
		s1.463-0.463,2.314-0.463c0.844,0,1.59,0.131,2.238,0.393s1.191,0.627,1.629,1.096s0.77,1.027,0.996,1.676
		S251.7,298.659,251.7,299.433z M248.794,299.022c0.008-0.469-0.051-0.877-0.176-1.225s-0.295-0.635-0.51-0.861
		s-0.465-0.395-0.75-0.504s-0.592-0.164-0.92-0.164c-0.719,0-1.309,0.24-1.77,0.721s-0.734,1.158-0.82,2.033H248.794z"/>
	<path d="M261.989,306.3l-0.07-1.559c-0.25,0.266-0.512,0.51-0.785,0.732s-0.574,0.416-0.902,0.58s-0.686,0.291-1.072,0.381
		s-0.811,0.135-1.271,0.135c-0.609,0-1.145-0.09-1.605-0.27s-0.848-0.43-1.16-0.75s-0.549-0.707-0.709-1.16s-0.24-0.953-0.24-1.5
		c0-0.562,0.119-1.082,0.357-1.559s0.602-0.887,1.09-1.23s1.098-0.613,1.828-0.809s1.588-0.293,2.572-0.293h1.559v-0.715
		c0-0.305-0.043-0.58-0.129-0.826s-0.225-0.455-0.416-0.627s-0.439-0.305-0.744-0.398s-0.68-0.141-1.125-0.141
		c-0.703,0-1.396,0.08-2.08,0.24s-1.346,0.385-1.986,0.674v-2.285c0.57-0.227,1.229-0.414,1.975-0.562s1.521-0.223,2.326-0.223
		c0.883,0,1.641,0.084,2.273,0.252s1.154,0.42,1.564,0.756s0.713,0.756,0.908,1.26s0.293,1.092,0.293,1.764v8.133H261.989z
		 M261.579,301.038h-1.746c-0.484,0-0.895,0.047-1.23,0.141s-0.609,0.223-0.82,0.387s-0.365,0.354-0.463,0.568
		s-0.146,0.443-0.146,0.686c0,0.484,0.156,0.854,0.469,1.107s0.738,0.381,1.277,0.381c0.398,0,0.812-0.145,1.242-0.434
		s0.902-0.703,1.418-1.242V301.038z"/>
	<path d="M275.208,306.3l-0.07-1.758c-0.25,0.305-0.508,0.582-0.773,0.832s-0.551,0.463-0.855,0.639s-0.631,0.312-0.979,0.41
		s-0.732,0.146-1.154,0.146c-0.703,0-1.328-0.141-1.875-0.422s-1.006-0.682-1.377-1.201s-0.654-1.15-0.85-1.893
		s-0.293-1.57-0.293-2.484c0-1.094,0.154-2.041,0.463-2.842s0.736-1.465,1.283-1.992s1.195-0.918,1.945-1.172
		s1.566-0.381,2.449-0.381c0.297,0,0.596,0.02,0.896,0.059s0.568,0.09,0.803,0.152v-4.652h2.859V306.3H275.208z M269.981,300.44
		c0,0.656,0.045,1.217,0.135,1.682s0.223,0.846,0.398,1.143s0.393,0.514,0.65,0.65s0.551,0.205,0.879,0.205
		c0.484,0,0.945-0.195,1.383-0.586s0.902-0.926,1.395-1.605v-5.203c-0.227-0.086-0.506-0.156-0.838-0.211s-0.666-0.082-1.002-0.082
		c-0.461,0-0.875,0.094-1.242,0.281s-0.682,0.453-0.943,0.797s-0.463,0.764-0.604,1.26S269.981,299.823,269.981,300.44z"/>
	<path d="M284.759,296.62h-3.363v-2.227h6.293v9.68h3.434v2.227h-10.137v-2.227h3.773V296.62z M287.923,291.136
		c0,0.258-0.047,0.5-0.141,0.727s-0.225,0.424-0.393,0.592s-0.365,0.301-0.592,0.398s-0.473,0.146-0.738,0.146
		s-0.514-0.049-0.744-0.146s-0.43-0.23-0.598-0.398s-0.299-0.365-0.393-0.592s-0.141-0.469-0.141-0.727s0.047-0.5,0.141-0.727
		s0.225-0.426,0.393-0.598s0.367-0.307,0.598-0.404s0.479-0.146,0.744-0.146s0.512,0.049,0.738,0.146s0.424,0.232,0.592,0.404
		s0.299,0.371,0.393,0.598S287.923,290.878,287.923,291.136z"/>
	<path d="M301.212,306.3v-7.758c0-1.305-0.484-1.957-1.453-1.957c-0.484,0-0.947,0.195-1.389,0.586s-0.908,0.922-1.4,1.594v7.535
		h-2.859v-11.906h2.473l0.07,1.758c0.242-0.305,0.494-0.582,0.756-0.832s0.545-0.463,0.85-0.639s0.633-0.311,0.984-0.404
		s0.746-0.141,1.184-0.141c0.609,0,1.141,0.1,1.594,0.299s0.832,0.48,1.137,0.844s0.533,0.801,0.686,1.312s0.229,1.084,0.229,1.717
		v7.992H301.212z"/>
	<path d="M316.235,296.479c0.219,0.273,0.373,0.561,0.463,0.861s0.135,0.607,0.135,0.92c0,0.664-0.115,1.25-0.346,1.758
		s-0.555,0.934-0.973,1.277s-0.918,0.604-1.5,0.779s-1.225,0.264-1.928,0.264c-0.414,0-0.797-0.041-1.148-0.123
		s-0.617-0.178-0.797-0.287c-0.133,0.133-0.246,0.279-0.34,0.439s-0.141,0.342-0.141,0.545c0,0.125,0.031,0.25,0.094,0.375
		s0.154,0.236,0.275,0.334s0.266,0.178,0.434,0.24s0.357,0.098,0.568,0.105l2.824,0.105c0.633,0.016,1.205,0.096,1.717,0.24
		s0.951,0.35,1.318,0.615s0.65,0.588,0.85,0.967s0.299,0.811,0.299,1.295c0,0.555-0.125,1.078-0.375,1.57s-0.627,0.92-1.131,1.283
		s-1.131,0.65-1.881,0.861s-1.621,0.316-2.613,0.316c-0.961,0-1.787-0.076-2.479-0.229s-1.258-0.365-1.699-0.639
		s-0.768-0.6-0.979-0.979s-0.316-0.795-0.316-1.248c0-0.273,0.035-0.527,0.105-0.762s0.176-0.459,0.316-0.674
		s0.316-0.424,0.527-0.627s0.461-0.406,0.75-0.609c-0.383-0.219-0.674-0.5-0.873-0.844s-0.299-0.711-0.299-1.102
		c0-0.266,0.035-0.514,0.105-0.744s0.162-0.451,0.275-0.662s0.244-0.414,0.393-0.609s0.305-0.387,0.469-0.574
		c-0.289-0.289-0.529-0.639-0.721-1.049s-0.287-0.924-0.287-1.541c0-0.664,0.119-1.256,0.357-1.775s0.568-0.957,0.99-1.312
		s0.924-0.625,1.506-0.809s1.217-0.275,1.904-0.275c0.352,0,0.689,0.018,1.014,0.053s0.619,0.096,0.885,0.182h4.125v2.086H316.235z
		 M309.497,307.882c0,0.461,0.232,0.801,0.697,1.02s1.119,0.328,1.963,0.328c0.539,0,0.994-0.051,1.365-0.152
		s0.674-0.234,0.908-0.398s0.402-0.355,0.504-0.574s0.152-0.445,0.152-0.68c0-0.211-0.049-0.389-0.146-0.533
		s-0.234-0.266-0.41-0.363s-0.383-0.172-0.621-0.223s-0.502-0.084-0.791-0.1l-2.52-0.047c-0.227,0.156-0.412,0.305-0.557,0.445
		s-0.258,0.279-0.34,0.416s-0.137,0.275-0.164,0.416S309.497,307.726,309.497,307.882z M309.978,298.331
		c0,0.633,0.186,1.135,0.557,1.506s0.889,0.557,1.553,0.557c0.352,0,0.658-0.059,0.92-0.176s0.479-0.273,0.65-0.469
		s0.301-0.422,0.387-0.68s0.129-0.527,0.129-0.809c0-0.664-0.186-1.182-0.557-1.553s-0.889-0.557-1.553-0.557
		c-0.352,0-0.658,0.059-0.92,0.176s-0.479,0.275-0.65,0.475s-0.301,0.432-0.387,0.697S309.978,298.042,309.978,298.331z"/>
	<path d="M321.825,301.19v-2.543h7.289v2.543H321.825z"/>
	<path d="M333.849,306.3v-2.543h3.902v-9.844l-3.398,1.875l-0.938-2.332l4.863-2.566h2.402v12.867h3.363v2.543H333.849z"/>
	<path d="M58.493,318.014c1.625,0,2.836,0.389,3.633,1.166s1.195,2.014,1.195,3.709v1.969c0,0.805,0.178,1.408,0.533,1.811
		s0.951,0.604,1.787,0.604h0.75v2.215h-0.75c-0.422,0-0.781,0.045-1.078,0.135s-0.537,0.229-0.721,0.416s-0.316,0.428-0.398,0.721
		s-0.123,0.643-0.123,1.049v3.082c0,0.805-0.092,1.51-0.275,2.115s-0.471,1.111-0.861,1.518s-0.891,0.713-1.5,0.92
		s-1.34,0.311-2.191,0.311h-0.984v-2.203h0.75c0.375,0,0.713-0.043,1.014-0.129s0.561-0.232,0.779-0.439s0.387-0.477,0.504-0.809
		s0.176-0.744,0.176-1.236v-3.047c0-0.586,0.049-1.088,0.146-1.506s0.246-0.766,0.445-1.043s0.455-0.49,0.768-0.639
		s0.68-0.254,1.102-0.316c-0.836-0.102-1.455-0.432-1.857-0.99s-0.604-1.416-0.604-2.572v-1.957c0-0.508-0.059-0.932-0.176-1.271
		s-0.285-0.611-0.504-0.814s-0.479-0.348-0.779-0.434s-0.639-0.129-1.014-0.129h-0.75v-2.203H58.493z"/>
</g>
</svg>
