<?xml version="1.0" encoding="utf-8"?>
<!-- Generator: Adobe Illustrator 16.0.0, SVG Export Plug-In . SVG Version: 6.00 Build 0)  -->
<!DOCTYPE svg PUBLIC "-//W3C//DTD SVG 1.1//EN" "http://www.w3.org/Graphics/SVG/1.1/DTD/svg11.dtd">
<svg version="1.1" id="Layer_1" xmlns="http://www.w3.org/2000/svg" xmlns:xlink="http://www.w3.org/1999/xlink" x="0px" y="0px"
	 width="1280px" height="700px" viewBox="0 0 1280 700" enable-background="new 0 0 1280 700" xml:space="preserve">
<g id="Layer_2">
</g>
<g>
	<rect fill="#0C82F5" width="1280" height="700"/>
	<g>
		<path fill="#0CF569" d="M36.949,216.677c-3.046-1.024-1.509,3.933-4.541,4.537c-3.025,0.615-6.66,2.124-4.233,2.736
			c2.421,0.6,7.864-0.307,8.479-1.216C37.256,221.829,37.86,216.98,36.949,216.677z"/>
		<path fill="#0CF569" d="M13.636,223.337c-3.636-0.296-7.275,0-7.875,1.212c-0.614,1.219,3.327,2.124,5.75,2.124
			c2.421,0,7.265-1.52,6.362-1.817C16.962,224.549,13.636,223.337,13.636,223.337z"/>
		<path fill="#0CF569" d="M33.622,196.987c-1.229,0.371,2.119,2.422,3.327,2.422c1.219,0,3.338-3.332,0.912-3.332
			C35.439,196.078,36.652,196.078,33.622,196.987z"/>
		<path fill="#0CF569" d="M44.22,172.146c0,0,0,0,1.823,1.52c1.812,1.508,4.843,2.11,7.566,2.417
			c2.733,0.307,2.733-1.508,0.608-3.325c-2.114-1.816-2.729-1.524-4.546-1.816c-1.818-0.307-2.114-2.125-6.958-2.125
			c-4.854,0-4.244-2.421-4.854-3.634c-0.604-1.216,4.238-0.609,5.458-0.309c1.213,0.309,6.051-3.638,6.051-3.638
			s7.879-3.018,8.785-2.417c0.912,0.603,5.458-0.601,7.571-1.213c2.125-0.604,3.333-3.935,3.333-3.935s2.729,0.914,4.244,2.424
			c1.512,1.511,4.85,0,5.754,0c0.907,0,5.453,3.032,5.453,3.032s6.057,0,8.479-0.308c2.426-0.304,8.785-0.304,11.212,0.308
			c2.417,0.601,13.32,1.203,14.54,1.203c1.208,0,7.259,2.122,11.201,1.213c3.942-0.908,5.755,0.609,6.667,0.909
			c0.899,0.305,1.812,0.305,3.333,2.123c1.51,1.822,3.024,0.3,5.149-0.91c2.114-1.213,1.817-2.429,1.817-2.429s0,0,1.817-0.297
			c1.817-0.304,3.025,0.604,8.177,0.915c5.149,0.299,3.937-0.915,7.566-2.125c3.64-1.213,7.275,1.508,8.488,1.21
			c1.208-0.304,2.724-2.721,3.635-1.517c0.911,1.213,2.416,3.64,2.416,3.64s3.943-3.026,5.151-3.026s4.853,1.201,6.973,0.904
			c2.12-0.304,10.295-0.304,12.114,1.213c1.812,1.513,6.358,1.209,8.78,2.722c2.421,1.522,4.849-1.209,3.635-1.813
			c-1.214-0.609-4.239-3.026-4.239-3.026s-4.547-5.45-5.15-6.363c-0.6-0.906-1.511-0.906-2.725,1.516
			c-1.213,2.418-5.753,2.418-10.905,2.725c-5.145,0.305-1.816-2.418-7.571-2.725c-5.754-0.305-3.629-2.422-1.817-2.422
			c1.817,0,3.026-3.64,3.63-5.762c0.615-2.123,2.729-1.816,6.972-1.511c4.23,0.304,5.449-0.612,9.692,0
			c4.24,0.607,3.938-1.815,8.177-1.518c4.238,0.305,2.119,0.906,4.545,2.427c2.423,1.512,3.938,1.211,7.267,2.724
			c3.333,1.517,2.125,1.517,3.64,1.825c1.517,0.296,6.666-0.609,9.688-0.915c3.031-0.298,5.458-0.612,6.974,1.21
			c1.517,1.818,1.213,3.941,3.338,5.45c2.114,1.521-1.218-5.45-1.218-7.871c0-2.424,4.239-0.307,6.968-0.307
			s5.749-0.906,6.357,0.307c0.608,1.21-3.938,3.03-1.213,5.759c2.729,2.726,4.546,3.633,6.968,3.633
			c2.421,0,7.874,0.601,5.453,3.934c-2.422,3.33-8.776,3.031-10.9,3.031c-2.125,0-5.76,1.213-4.849,3.028
			c0.911,1.818,5.754,0.909,9.083,0.909c3.338,0,13.629,0.909,16.353,0c2.733-0.909,2.125-4.546-0.906-5.456
			c-3.026-0.908-0.604-2.726,2.432-2.122c3.032,0.609,6.051-0.908,5.447,0c-0.604,0.909,0.308,3.032,0.308,5.455
			c0,2.422,0.901,3.945,3.021,3.33c2.125-0.601,2.427-0.908,4.547-1.208c2.124-0.303,0.911-5.456-0.309-8.182
			c-1.196-2.721-2.113-4.242-1.812-5.751c0.307-1.516,3.636-1.816,5.447-0.305c1.821,1.518,4.244,4.539,4.244,4.539
			s3.642,2.121,4.85,4.546c1.214,2.429,1.516,1.822,3.938,0.304c2.421-1.515,3.025-1.21,5.15,0.303
			c2.125,1.516,0.604,4.546,0.604,5.455c0,0.913,3.031,0,3.63-1.818c0.614-1.814,3.036-1.814,4.558-2.421
			c1.505-0.606,1.505-4.247,1.505-4.247s-3.938-0.908-7.875-0.604c-3.933,0.297-5.15-0.304-8.171-2.423
			c-3.03-2.115-1.218-3.633-2.734-5.75c-1.514-2.123,4.851-3.341,8.787-5.152c3.933-1.816,7.874-0.609,6.968,3.937
			c-0.912,4.546-1.512,3.945,3.025,3.036c4.546-0.914-0.309-4.847,1.816-5.161c2.125-0.299,7.571-1.205,9.396-0.905
			c1.812,0.307,11.806-0.906,14.238-0.906c2.422,0,6.354,2.125,9.083,3.634c2.729,1.519,9.999,3.636,11.812,4.542
			c1.817,0.908,14.539,2.727,15.752,3.03c1.214,0.308,1.214,3.938,2.423,6.971c1.219,3.028,4.546,0.91,5.754,0.91
			c1.215,0,5.457,2.118,6.666,3.628c1.208,1.524,10.303,2.727,10.303,2.727s-2.118,2.722-3.03,3.633
			c-0.906,0.912-3.03,1.518-4.843,2.731c-1.823,1.21-3.942-0.305-6.369-1.82c-2.417-1.516-6.667-2.425-7.567-1.822
			c-0.912,0.613-0.297,1.822,0.309,2.728c0.593,0.915,4.537,2.125,6.963,3.943c2.421,1.822,1.813,3.64,2.119,6.057
			c0.302,2.426-2.429-0.909-5.451-1.511c-3.037-0.604-3.333,2.416-3.333,2.416s-3.938-0.296-5.755-0.296c-1.817,0,0,0-3.333-2.428
			c-3.328-2.416-2.726,1.521-4.541,0.308c-1.813-1.216-3.63-3.031-4.547-2.428c-0.911,0.609-3.938-2.723-5.761-2.421
			c-1.815,0.303-9.075-0.915-10.889-0.302c-1.828,0.605-3.338,0.605-4.854,1.211c-1.521,0.609-2.119-4.245-1.213-5.755
			c0.905-1.522,3.029-1.817,6.969-0.909c3.931,0.909,4.238,0,5.148-1.52c0.906-1.51,1.812-3.018,6.052-4.234
			c4.25-1.216-0.296-2.125-1.505-2.726c-1.219-0.607-2.733-1.82-3.641,0c-0.906,1.817-3.025,3.942-3.025,3.942s-2.427,0-5.76-0.307
			c-3.333-0.311-0.906-1.516,0.609-2.125c1.51-0.603,3.333-4.237,1.812-5.148c-1.511-0.911-2.121-1.515-4.844-0.911
			c-2.724,0.606-0.911-2.125-2.724-3.031c-1.817-0.908-1.219,0.609-1.219,1.822c0,1.209-2.725,0.909-2.725,0.909
			s-4.245-0.609-5.754,0c-1.517,0.604-4.239,1.813-3.329,2.729c0.906,0.91,3.933,0.91,4.838,3.63
			c0.912,2.726-3.932,3.338-4.838,3.634c-0.911,0.305-4.546,1.521-4.546,1.521s-3.636-0.909-6.666-0.909
			c-3.025,0-3.938,0.297-3.327,1.508c0.604,1.216,2.12,0.603,3.021,0.603c0.911,0,0.911,1.522,3.641,0.911
			c2.729-0.604,2.125-1.513,4.541,0.912c2.428,2.424,4.854,2.117,8.791,4.244c3.934,2.12-0.615,4.547-2.729,4.547
			c-2.119,0-2.119-1.824-3.334-3.635c-1.213-1.825-6.056,0.3-6.056,0.3s-3.942,2.121-6.051,2.121c-2.125,0-3.646-0.307-0.917-2.421
			c2.729-2.125-3.333-2.432-3.333-5.455c0-3.032-1.208,3.023-1.208,4.543c0,1.51-2.421,0.302-7.578,0.912
			c-5.146,0.599-4.239,2.421-10.905,6.655c-6.666,4.245-8.171,5.154-7.571,9.094c0.61,3.938,2.125,2.723,4.849,3.333
			c2.724,0.604,1.813,5.146,3.938,4.838c2.123-0.294,3.64-1.817,7.878,0.307c4.238,2.12,6.358,2.728,11.51,3.633
			c5.148,0.907,8.479,2.428,11.212,1.82c2.724-0.606,4.542,0.303,4.542,2.425c0,2.123,1.816,2.424,1.51,5.153
			c-0.303,2.724,3.338-2.432,3.338-2.432s1.505,4.557,0.291,5.155c-1.203,0.604,0.309,3.327,1.824,3.034
			c1.514-0.311,3.639,0.905,5.453-0.615c1.816-1.51-0.907-6.05-0.907-7.872c0-1.814-1.822-2.724-2.729-4.546
			c-0.911-1.817,2.422-2.123,3.637-0.303c1.218,1.818,3.333,0.303,5.452-1.213c2.118-1.512,2.118-4.239,2.118-4.239
			s-3.629-4.847-6.354-6.054c-2.734-1.216-1.525-1.517,1.197-2.123c2.733-0.609,0-1.514,0.612-4.847
			c0.604-3.334,0.604-5.452,2.121-5.452s6.963-0.909,11.509-0.603c4.547,0.306,6.666,3.63,9.696,3.938
			c3.025,0.294,7.868,0.905,8.78,2.418c0.907,1.513-3.333,1.82-1.208,4.245c2.114,2.423,2.421,2.12,4.541,3.03
			c2.12,0.907,4.535,0.303,7.271-3.338c2.733-3.631,3.934-3.937,4.837-3.33c0.916,0.604,6.678,7.268,8.188,8.788
			c1.517,1.511,4.542,4.835,4.844,6.359c0.31,1.508,4.546,1.508,5.755,1.508c1.214,0,5.755,3.338,6.357,5.158
			c0.614,1.817,1.823,2.426,5.755,3.333c3.942,0.906,0,4.234-0.906,6.051c-0.904,1.824-1.511,2.428-2.724,4.547
			c-1.208,2.12,0,0,1.511,0.905c1.518,0.915,2.119,2.123,4.546,1.521c2.431-0.606,3.636,0,4.547,1.817
			c0.905,1.822,2.118,3.333,3.03,4.838c0.9,1.521,0,3.943-1.22,2.433c-1.204-1.521-5.149-0.614-5.149-0.614
			s-1.812,1.817-2.417,0.908c-0.604-0.908-1.819-2.112-3.939-1.51c-2.114,0.603-4.234,0-6.66,0.305
			c-2.429,0.297-3.333-1.21-1.817-2.426c1.519-1.204,1.817-5.75,4.844-7.572c3.029-1.816,2.125-4.54,0-4.54
			c-2.118,0-3.023,2.724-4.238,3.333c-1.214,0.603-3.635,0.603-5.76,2.117c-2.113,1.513-7.267,0.912-5.144,1.513
			c2.12,0.609-3.029,3.038-4.849,3.038c-1.822,0-1.213-3.946-1.213-5.462c0-1.516-2.424,0.911-2.424,0.911s-4.85-2.727-6.666-0.911
			c-1.823,1.822-4.546,2.729-6.661,4.546c-2.124,1.822-6.968,4.843-6.968,4.843s1.816-0.912,5.451-1.817
			c3.631-0.907,3.334-0.6,6.354-2.11c3.038-1.52,6.062-2.126,8.187,0.6c2.114,2.726-0.902,4.234-0.902,4.234
			s1.207,2.125,2.416,2.729c1.214,0.609,1.517-0.604,3.636-1.821c2.12-1.205,1.213,2.43,1.82,3.638
			c0.604,1.213,2.726,1.213,3.938-0.303c1.209-1.514,2.114-2.724,3.021-1.814c0.911,0.909,1.827,3.026,2.729,5.149
			c0.912,2.124-6.358,2.729-7.566,3.027c-1.208,0.305-6.975,1.519-7.875,1.822c-0.91,0.297-3.932,3.018-6.36,3.018
			c-2.422,0-2.125-3.63-2.422-5.744c-0.309-2.124-3.338,0.297-3.636,1.209c-0.303,0.905-3.03,0.608-5.149,0.905
			c-2.12,0.308-5.753,2.43-5.753,4.846c0,2.425,2.724,3.638,1.816,4.846c-0.907,1.216-6.363,2.125-8.482,1.519
			c-2.12-0.609-5.151,0.908-4.239,2.122c0.907,1.208,0.307,3.025-1.816,2.728c-2.125-0.307-2.423,1.818-1.517,3.326
			c0.905,1.513-2.729,4.541-3.635,3.33c-0.907-1.206-2.729-1.817-2.729,0c0,1.817,0.604,3.333,2.429,5.757
			c1.812,2.422-3.938,3.944-6.059,5.76c-2.124,1.814-9.395,7.871-12.414,9.084c-3.032,1.209-3.032,5.151-1.521,6.659
			c1.521,1.521,3.333,7.874,4.244,9.999c0.905,2.125-0.309,8.173-3.031,7.875c-2.726-0.307-1.213-3.938-3.938-4.849
			c-2.729-0.905-4.244-6.36-4.849-9.999c-0.604-3.631-1.208-1.509-3.03-0.306c-1.816,1.216-3.636-2.417-4.542-3.325
			c-0.905-0.906-6.057,0.602-9.688,0.307c-3.637-0.307-4.851,1.508-4.851,2.417c0,0.908-0.6,3.631-3.938,1.817
			c-3.328-1.817-3.942-1.817-7.271-1.817c-3.333,0-6.363-0.308-6.963,0.908c-0.608,1.213-3.941,3.941-6.062,4.549
			c-2.125,0.605-6.058,3.639-4.239,4.234c1.824,0.611,1.824,4.849,0.604,7.269c-1.214,2.429-0.912,6.668-0.309,10.905
			c0.609,4.246,4.25,6.97,7.577,9.696c3.328,2.729,4.546,3.638,7.874,1.212c3.338-2.422,4.537-0.906,5.458-0.605
			c0.901,0.308,3.329-1.517,2.417-4.238c-0.907-2.724,1.218-5.151,3.941-4.849c2.725,0.31,6.659-0.909,8.779-0.601
			c2.125,0.296,3.333,6.048,0,8.475c-3.327,2.429-1.511,6.064-2.12,8.791c-0.604,2.723-3.332,3.324,0,3.324
			c3.339,0,2.434,0.608,4.543,0.907c2.123,0.309,4.243-1.813,6.368-2.121c2.114-0.293,7.567,4.547,6.655,6.977
			c-0.9,2.424-1.812,6.657-1.505,10.598c0.297,3.938,1.505,4.246,2.109,5.451c0.612,1.219,3.035,3.945,5.759,2.731
			c2.725-1.218,5.453-2.125,6.358-3.338c0.916-1.208,6.672,2.12,6.062,3.036c-0.608,0.896,2.12,1.812,3.933,0.896
			c1.816-0.896,2.733-2.424,4.551-4.845c1.813-2.425,4.844-4.538,6.359-4.845c1.516-0.297,5.149-3.939,7.566-3.326
			c2.433,0.601-0.906,3.633-1.209,5.445c-0.296,1.812,0,6.973,1.209,7.271c1.219,0.296,0.614-3.641,2.125-6.359
			c1.516-2.728,4.541-4.246,6.062-4.246c1.51,0,2.724,6.366,4.842,4.551c2.12-1.817,6.359-1.521,7.271,0.3
			c0.904,1.817,1.815,2.725,1.815,2.725s1.519-1.204,1.519-2.725c0-1.515,4.843-3.036,7.879-1.214
			c3.023,1.816,1.815,2.424,3.321,2.729c1.521,0.302,3.03-3.938,3.941-4.247c0.905-0.309,0,4.851-2.119,7.574
			c-2.12,2.735,1.812,1.824,1.812,1.824s0,0,0.904,0.911c0.912,0.899,3.942-0.911,5.155,0.899c1.218,1.816,3.338,2.422,5.15,5.762
			c1.814,3.326,4.546,2.414,8.171,1.812c3.641-0.604,8.188,1.818,11.813,5.763c3.638,3.936,3.036,6.965,5.452,6.965
			c2.43,0,3.025,3.325,3.025,4.536s-5.441,3.943-8.479,4.551c-3.028,0.604-3.028,3.641,1.817,2.729
			c4.848-0.912,2.729-2.729,5.754-3.637c3.031-0.912,6.062,1.205,3.338,4.842c-2.732,3.631-8.183,3.939-3.338,4.537
			c4.85,0.613,2.125-0.604,4.85-4.23c2.726-3.635,2.422-2.424,4.249-2.424c1.812,0,5.74,0.912,7.261,2.117
			c1.523,1.215,5.446,3.029,7.88,4.537c2.417,1.521,5.452,0.912,7.267,0.305c1.812-0.598,6.969,1.818,8.785,4.244
			c1.812,2.43,6.364,2.73,8.479,3.641c2.12,0.904,5.457,4.535,5.756,7.568c0.308,3.023-3.328,9.395-3.636,10.906
			c-0.298,1.508-5.142,6.963-9.688,10.6c-4.547,3.635-1.823,7.879-1.518,9.689c0.298,1.818-3.03,8.475-2.118,9.994
			c0.903,1.514-1.222,4.848-3.032,6.969c-1.816,2.123-3.029,6.053-4.237,7.865c-1.209,1.824-5.148,1.223-8.785,2.133
			c-3.626,0.9-5.458,1.812-5.458,1.812s-6.356,3.031-9.987,5.447c-3.631,2.43,1.209,6.672-0.608,9.998
			c-1.816,3.338-3.634,3.035-5.452,6.965c-1.816,3.941-2.719,0.619-4.245,1.521c-1.51,0.912-2.416,3.328-2.723,5.754
			c-0.297,2.426-3.323,4.848-7.26,8.482c-3.941,3.633-6.37,3.021-10.607,1.816c-4.239-1.217-3.631-11.52-4.239-10.004
			c-0.604,1.516-0.297,6.969,0.31,7.887c0.595,0.9,2.422,4.234,3.934,5.145c1.516,0.91,1.207,2.414,0,3.936
			c-1.209,1.518-4.537,6.979-5.756,7.273c-1.208,0.299-10.597,1.514-12.416,0.604c-1.816-0.902-2.724,2.117-2.426,3.941
			c0.303,1.816,1.814,3.93-1.511,3.326c-3.34-0.604-7.881-2.729-7.881-1.225c0,1.531,0.905,4.859,2.729,4.859
			c1.812,0,3.634-1.217,2.725,0.904c-0.912,2.123-3.327,3.939-4.546,4.854c-1.209,0.906-2.726,3.928-5.756,6.047
			c-3.029,2.131-3.029,3.334-2.422,4.246c0.609,0.906,5.149,0.307,6.059,0.906c0.91,0.605-0.903,4.854-2.12,5.758
			c-1.209,0.908-6.358,5.146-8.479,6.363c-2.125,1.209-2.125,4.842-1.517,6.658c0.604,1.816,5.449,6.367,8.172,7.27
			c2.733,0.912,8.487,0.604,7.885,1.514c-0.604,0.908-7.271,1.818-8.182,2.123c-0.9,0.303-5.755,1.518-8.182,1.518
			c-2.418,0-6.964-2.428-7.875-2.428s0.613-1.213,3.641-3.625c3.025-2.434-1.213-5.156-1.816-1.816
			c-0.608,3.32-1.823,4.229-3.333,4.229c-1.521,0-3.333-2.127-4.245-3.031c-0.911-0.898-4.843-1.811-4.238-5.447
			c0.604-3.639-1.816-3.322-3.634-4.844c-1.818-1.518,2.426-2.723,1.816-4.244c-0.609-1.51-3.333-0.604-3.636-2.729
			c-0.301-2.113,2.423-5.145,2.729-6.057c0.297-0.908-1.822-2.721-2.119-4.234c-0.308-1.52,1.209-3.031,3.327-5.447
			c2.12-2.436,3.63-5.455,3.63-6.367c0-0.906-1.51-4.244-1.51-6.66c0-2.42,1.51-3.332,2.125-6.67c0.6-3.322-2.125-2.111-2.125-4.844
			c0-2.73,3.031-1.816,2.428-4.537c-0.609-2.73,1.515-4.557,2.42-6.367c0.906-1.818,1.817-4.848,3.031-6.969
			c1.213-2.117-1.214-6.959-1.214-7.871c0-0.9,3.938-2.117,2.12-3.941c-1.812-1.812,0.604-3.332,2.428-4.854
			c1.817-1.502-0.303-5.748,0.604-11.191c0.91-5.455,1.817-14.852,1.817-15.758s0.303-4.549-1.214-6.971
			c-1.51-2.428-3.327-4.238-5.446-5.145c-2.125-0.912-4.85-3.645-6.37-3.938c-1.509-0.307-8.784-3.027-8.784-7.27
			c0-4.25-5.141-7.584-5.749-10.605c-0.61-3.021-5.146-9.688-5.452-12.721c-0.304-3.02-6.666-3.936-7.572-7.27
			c-0.907-3.334,3.03-5.756,3.63-7.877c0.609-2.123-2.119-6.66-2.417-8.176c-0.307-1.518,4.541-5.762,6.359-6.66
			c1.812-0.91,3.338-4.849,4.535-4.849c1.218,0,0.917-3.339,2.13-6.672c1.208-3.326-0.604-7.862-1.517-8.479
			c-0.905-0.605-1.812-4.545-3.338-5.75c-1.506-1.209-4.535-0.612-4.535-0.612s0.604,2.729-2.125,4.25
			c-2.725,1.507-3.333-0.31-4.239-1.216s-4.245-1.217-5.75-2.721c-1.521-1.527-3.942-3.645-5.767-4.546
			c-1.812-0.917-4.541-1.825-4.232-5.457c0.303-3.635-3.942-5.757-5.155-6.355c-1.208-0.617-3.635-2.123-5.146-1.22
			c-1.515,0.909-4.237-1.812-6.362-1.511c-2.12,0.298-6.359-3.64-7.875-5.155c-1.51-1.517-2.724-3.638-5.447-3.638
			c-2.733,0-3.03,0.906-4.853,3.028c-1.813,2.125-4.542-1.511-5.448-2.419c-0.911-0.903-3.333-1.214-6.666-1.214
			s-5.753-4.537-6.961-5.145c-1.214-0.609-9.692-4.548-11.817-5.759c-2.12-1.215-4.245-5.761-3.338-6.965
			c0.912-1.216-1.505-5.149-1.505-5.149s-4.249-4.852-5.76-4.852c-1.509,0-6.358-8.479-9.087-10.898
			c-2.725-2.423-9.083-7.884-10.301-10.606c-1.209-2.724-1.517-6.966-4.537-4.841c-3.03,2.117-0.613,4.239,2.416,6.655
			c3.032,2.429,2.429,4.854,6.666,8.185c4.239,3.338,2.428,6.663,4.239,8.173c1.822,1.521,8.182,5.154,5.458,7.578
			c-2.729,2.421-5.458-3.032-6.666-3.333c-1.209-0.305-3.941-0.909-3.635-2.724c0.309-1.816-2.421-3.338-4.546-6.062
			c-2.12-2.721-3.026-1.208-5.745-1.208c-2.734,0-0.307-3.333,1.199-4.845c1.52-1.517-1.505-3.639-3.328-4.241
			c-1.812-0.614-4.239-7.569-6.662-11.817c-2.432-4.243-4.244-6.355-6.968-6.062c-2.722,0.305-3.938-3.019-5.754-4.231
			c-1.817-1.216-4.546-6.972-7.572-9.999c-3.026-3.033-5.759-8.783-5.453-12.118c0.297-3.333,1.208-11.812,1.208-13.929
			c0-2.122-1.515-7.272-1.515-8.179c0-0.908-1.517-2.426-2.724-2.724c-1.209-0.306-4.547-4.546-7.271-4.546
			c-2.724,0-4.541-3.029-3.634-5.15c0.91-2.117-2.417-5.75-3.938-5.75c-1.512,0-3.938-3.945-4.849-6.062
			c-0.907-2.125-3.329-2.125-2.725-0.916c0.604,1.216-0.303,3.337,1.208,3.946c1.517,0.6,2.734,5.446,1.517,6.05
			c-1.209,0.615-3.938-1.816-6.963-3.325c-3.032-1.516-1.818-7.578-1.818-9.093c0-1.516-4.244-3.028-6.062-3.028
			s-3.629,0.304-3.933-3.633c-0.307-3.942-5.765-6.059-7.583-6.059c-1.812,0-11.509-3.938-14.54-3.938
			c-3.021,0-8.171-2.73-9.993-1.514c-1.812,1.208-5.146-2.123-6.963-2.123c-1.812,0-1.812,1.213-5.15,3.33
			c-3.333,2.123-4.54,0.909-6.357,2.424c-1.812,1.516-6.359,3.031-4.844-0.604c1.506-3.634,1.506-4.243-0.911-3.333
			c-2.427,0.907-3.03,3.333-3.03,4.852c0,1.513-4.238,3.931-4.238,3.931s3.931,0.308,5.457,0c1.506-0.294,0.297,3.338-1.219,4.245
			c-1.507,0.909-3.636,3.328-6.062,2.728c-2.417-0.609-2.72-2.728-4.23-3.032c-1.524-0.307-4.848,2.12-10.3,4.846
			c-5.458,2.731-4.546,0.606-6.666,1.518c-2.119,0.907-9.697,3.636-12.42,3.937c-2.724,0.297-2.125-3.333-0.604-3.333
			c1.511,0,7.27-2.729,8.779-3.635c1.517-0.911,8.183-3.333,9.993-4.238c1.822-0.912,4.849-2.422,3.641-4.239
			c-1.209-1.82-5.15,0.911-5.15,0.911s-3.03-2.73-3.933-3.337c-0.91-0.604-2.732,2.426-2.732,2.426s-3.932-0.609-3.025-3.942
			c0.905-3.33-2.125-3.33-2.725-1.816c-0.613,1.513-5.754,3.938-6.066,2.425c-0.302-1.516-4.843-4.546-6.052-6.971
			c-1.219-2.418,1.209-2.724,3.933-4.846c2.725-2.12,6.665-2.723,10.005-2.416c3.326,0.296,5.446-3.641,4.238-3.947
			c-1.219-0.3-3.333-0.606-5.15,0.908c-1.822,1.524-6.368,1.217-6.368,1.217s-6.656,0-9.384-1.818
			c-2.727-1.82-4.239-4.546-4.239-4.546s5.452-2.12,9.691-2.417L44.22,172.146z M321.676,262.412c3.03,0.333,3.03-3.934,2.729-5.151
			c-0.301-1.213-0.301-6.352,0.917-7.264c1.195-0.91,2.724-3.635,6.051-3.942c3.327-0.303,5.458,2.123,5.146,4.854
			c-0.303,2.724,0.609,5.447,1.823,5.447c1.213,0,4.843-2.123,3.63-3.937c-1.209-1.818,0.905-7.88,0.905-5.755
			c0,2.12,2.433,3.638,3.947,3.333c1.516-0.303-1.516-5.759-3.641-6.059c-2.118-0.304-6.354-0.304-7.266,0
			c-0.911,0.3-6.062-1.521-8.488-1.213c-2.416,0.304-6.051,1.213-7.264,3.637c-1.214,2.422,0,6.963-0.303,8.779
			C319.566,256.954,318.952,262.109,321.676,262.412z M338.642,262.412c0.692,1.382,3.943,0.304,5.757-1.516
			c1.815-1.817,5.755-2.418,6.974-3.942c1.197-1.507,2.114-1.2,5.139-2.414c3.032-1.216,5.458-1.513,4.245-3.033
			c-1.213-1.511-7.572,0-8.479-0.599c-0.905-0.606-7.275,6.66-7.275,6.66s-5.447,2.12-5.754,3.026
			C338.945,261.502,337.737,260.595,338.642,262.412z M307.142,239.091c0,1.627,3.024,1.814,4.839,0.909
			c1.82-0.909,4.551-1.511,5.764-1.816c1.208-0.307,0.604,1.505,3.328,1.505c2.729,0,6.062,0.912,6.974,0.614
			c0.906-0.304,3.63-3.937,1.505-4.246c-2.12-0.3-5.446-2.422-7.26-4.237c-1.817-1.816-6.061,2.423-10.004,3.937
			C308.349,237.274,307.142,236.674,307.142,239.091z M182.954,229.09c-2.479-0.817,0.905,3.638,2.416,4.546
			c1.516,0.912,4.546,0.912,4.854,2.422c0.298,1.522,1.208,5.152,2.725,4.847c1.516-0.304,1.516-3.631,0.307-4.847
			c-1.213-1.207-5.754-4.846-6.666-4.846C185.675,231.212,183.858,229.396,182.954,229.09z"/>
		<path fill="#0CF569" d="M332.582,187.497c-0.82,0.904,3.634,2.217,4.443,1.007C337.833,187.3,334.598,185.268,332.582,187.497z"/>
		<path fill="#0CF569" d="M344.299,189.312c-3.221,0.92-0.209,3.226,1.817,2.422C348.129,190.931,347.121,188.504,344.299,189.312z"
			/>
		<path fill="#0CF569" d="M193.653,140.049c-0.409,1.224,1.812,1.2,4.434,1.2c2.631,0,6.875,0,8.088-0.601
			c1.209-0.599,7.271-2.02,7.071-0.203c-0.21,1.822,2.417,4.643,3.825,4.239c1.423-0.404,4.249-3.025,5.656-2.017
			c1.418,1.011,1.623,3.433,3.036,4.037c1.413,0.604,5.249,0.604,7.065,0c1.812-0.604,6.871-0.604,9.093-0.206
			c2.217,0.414,8.677,1.621,9.287,0.414c0.604-1.213,2.417-1.419,2.621-2.632c0.2-1.213,1.209-5.049,1.209-5.049
			s-1.209-2.217-3.226-1.208c-2.018,1.005-2.633,1.617-4.443,1.208c-1.813-0.401-1.813-3.638-5.049-3.024
			c-3.23,0.601-3.84,2.421-4.844,3.228c-1.013,0.812-3.234,1.41-4.033,1.01c-0.811-0.396-5.463-3.03-5.463-3.03
			s-9.69-0.4-10.091-1.613c-0.409-1.208-2.017-3.228-6.466-2.821c-4.445,0.4-12.118,3.029-13.336,3.029
			c-1.199,0,1.422,2.418-0.195,2.418C196.272,138.428,194.263,138.225,193.653,140.049z"/>
		<path fill="#0CF569" d="M227.979,131.765c-2.334,0.776-1.817,3.029-0.199,3.029c1.611,0,5.662-1.414,6.859-0.405
			c1.22,1.012,4.249,0.205,4.04-0.81c-0.2-1.005,1.214-5.053-1.204-5.252C235.05,128.127,231.621,130.552,227.979,131.765z"/>
		<path fill="#0CF569" d="M255.243,129.139c-0.308,1.438,1.612,2.626,4.039,2.626c2.432,0,7.675-1.213,8.075-0.21
			c0.403,1.02-0.195,1.826,2.625,2.222c2.83,0.409,4.041,0.817,5.657,0.817c1.618,0,1.003-2.634-0.403-4.447
			c-1.418-1.82-1.01-1.609-4.644-2.626c-3.636-1.005-7.276-1.005-9.692-0.811C258.468,126.919,255.847,126.309,255.243,129.139z"/>
		<path fill="#0CF569" d="M259.282,138.428c-1.525,1.336,0,5.45-0.609,5.853c-0.604,0.404,0.205,2.218,1.822,1.82
			c1.618-0.401,2.417-4.237,3.635-4.237c1.213,0,7.476-1.418,8.479,0.804c1.013,2.214,1.013,1.21,3.839,1.416
			c2.821,0.197,5.047-2.824,5.252-3.837c0.194-1.015-1.418-3.031-5.252-2.627C272.609,138.024,260.9,137.015,259.282,138.428z"/>
		<path fill="#0CF569" d="M266.756,149.126c-1.401,0.899-0.608,3.842,1.613,4.037c2.223,0.209,6.062-1.411,6.46-0.195
			c0.405,1.21,1.812,6.663,5.453,4.846c3.635-1.819,3.436-3.438,4.45-3.636c1.002-0.207-0.212-4.648-1.824-5.659
			c-1.617-1.006-6.87-0.4-8.278,0.209C273.213,149.333,268.974,147.716,266.756,149.126z"/>
		<path fill="#0CF569" d="M289.577,150.951c0.233,0.552,1.817,1.608,4.442,1.208c2.621-0.407,6.451-0.812,8.269-1.008
			c1.828-0.2,2.228-3.237,0.21-3.438c-2.028-0.203-3.635-2.017-5.447-1.413C295.229,146.912,288.961,149.53,289.577,150.951z"/>
		<path fill="#0CF569" d="M288.961,142.462c-0.881,2.125,8.089,3.237,7.075,0.812C295.022,140.845,289.975,140.049,288.961,142.462z
			"/>
		<path fill="#0CF569" d="M290.579,132.162c-2.554-0.615-6.86-1.404-6.86-2.016c0-0.604-1.219,2.834,1.016,3.838
			c2.221,1.008,5.846,2.824,8.477,3.842c2.623,1.004,7.665,1.203,9.288,3.225c1.617,2.016,7.062,3.633,7.062,3.633l6.474,0.612
			c0,0,4.438-1.016,9.076-0.612c4.645,0.404,11.51,1.015,15.35,0.809c3.839-0.197,4.443-1.41,4.85-2.219
			c0.397-0.812-7.065-2.429-8.889-2.223c-1.822,0.197-12.124,0.197-15.145,0c-3.031-0.207-6.871-0.207-9.297,0
			c-2.419,0.197-4.229-1.612-6.052-2.624c-1.812-1.013-5.853-4.242-8.271-4.651C295.229,133.38,295.632,133.38,290.579,132.162z"/>
		<path fill="#0CF569" d="M549.46,174.166c-0.812,1.349-2.421,1.416-0.812,4.242c1.624,2.822,2.831,4.438,4.241,4.238
			c1.413-0.199,6.264-0.404,6.871,1.216c0.604,1.616,2.225,3.031,5.647,2.014c3.434-1.008,6.255-1.606,7.062-2.822
			c0.816-1.211,6.273-1.41,6.273-1.41s4.439-3.438,2.82-4.846c-1.625-1.418-5.446-2.43-7.275-2.631
			c-1.818-0.203-3.634,1.416-7.668,1.416c-4.04,0-6.666,1.612-8.284,0C556.732,173.964,550.06,173.16,549.46,174.166z"/>
		<path fill="#0CF569" d="M371.962,134.183c2.426,1.619,3.839,0.611,6.864,1.217c3.026,0.596,5.452,5.044,7.071,5.651
			c1.611,0.608,3.83,0,4.843-1.213c1.008-1.21,2.416-5.45,2.416-5.45s0,4.039,2.433,4.843c2.421,0.817,8.479-0.604,10.104-0.401
			c1.604,0.199,11.1,1.416,13.726,2.621c2.626,1.216,9.081,2.025,10.905,4.649c1.812,2.621,2.021,11.708,3.022,12.719
			c1.018,1.012,4.437-3.233,5.257-4.234c0.808-1.016,5.047-0.407,6.459,1.001c1.411,1.416,4.639,4.852,4.44,6.267
			c-0.204,1.408-0.808,3.629-2.022,2.818c-1.199-0.801-3.229-0.6-2.418-2.22c0.81-1.616,1.209-5.043-0.403-5.043
			c-1.619,0-3.026,0-3.026,0s-3.026-0.811-5.049,2.222c-2.017,3.027-0.409,6.059,1.009,6.059c1.408,0,4.646,0,4.646,0.798
			c0,0.814-3.433,3.238-3.236,4.651c0.209,1.416,2.826,6.256,3.643,7.268c0.804,1.011,5.049,2.019,6.25,2.221
			c1.222,0.203-2.813,0.4-1.815,1.818c1.021,1.415,2.626,4.839,4.85,5.648c2.225,0.817,8.483,4.442,9.286,6.062
			c0.812,1.613,5.658-1.211,6.678-1.413c1.005-0.197,0.799,4.242,3.631,4.442c2.819,0.197,3.835-0.403,6.263-2.217
			c2.416-1.817,1.812-4.242,2.012-6.056c0.209-1.823,0-3.233,2.626-2.632c2.626,0.599,4.034-0.405,3.839-2.419
			c-0.19-2.021-2.415-4.443,1.813-5.053c4.249-0.604,6.471-3.228,9.097-3.228c2.623,0,9.888,1.008,10.696,0
			c0.808-1.006,4.232-5.655,6.46-5.855c2.229-0.207,8.079-0.606,13.331-1.416c5.254-0.806,10.903-3.834,12.729-3.64
			c1.812,0.203,6.256,0.203,4.845-1.007c-1.413-1.213-3.438-4.034-6.47-4.034c-3.027,0-0.197-4.443,0.604-4.443
			c0.812,0,4.853,0.601,4.651,2.621c-0.197,2.022,1.214,4.644,5.252,3.848c4.032-0.82,3.422-3.848,2.62-4.654
			c-0.803-0.809-1.406-2.832-2.216-4.237c-0.812-1.418-0.611-3.235,3.628-3.64c4.245-0.405,10.104,1.615,9.889-1.613
			c-0.192-3.233,0-6.668,1.221-8.484c1.218-1.814,3.839-3.033,2.426-3.629c-1.416-0.606-3.233,0.807-4.646-2.225
			c-1.406-3.029,1.22-5.252,2.826-6.466c1.617-1.204,10.095-9.085,14.743-10.295c4.642-1.212,7.873-5.858,4.642-6.866
			c-3.229-1.009-9.691-2.827-13.928,0.401c-4.25,3.241-6.66,6.259-11.511,5.253c-4.842-1.008-4.245,0.402-4.44-5.253
			c-0.204-5.652-5.457-15.751-9.691-15.142c-1.061,0.152-1.857,0.266-2.454,0.352s-0.994,0.142-1.257,0.177
			c-3.75-5.724-8.555-5.41-13.766-3.974c-0.651,0.18-1.309,0.376-1.972,0.582c-1.887,1.806-4.887,1.806-5.887,0.806
			c-3-1-6.25-1.25-9.528-1.121c-0.656,0.026-1.311,0.065-1.959,0.111c-8.513-1.99-17.513,2.01-26.351,1.762
			c-0.685-0.011-1.366,0-2.043,0.035c-3.385,0.176-6.669,0.983-9.92,2.961c-0.667,0.048-1.285,0.1-1.851,0.155
			c-2.265,0.22-3.692,0.478-3.996,0.78c-2.416,2.418-4.639,8.48-6.854,6.864c-2.223-1.609-2.632-5.648-5.453-4.039
			c-2.83,1.616-0.209,5.655-2.638,8.481c-2.416,2.829-9.28,2.424-11.299,1.416c-2.021-1.004-4.04-1.816-12.117-1.416
			c-8.079,0.412-16.962,2.829-15.146,5.253c1.812,2.422-3.635,3.835-5.048,2.629c-1.413-1.213-7.874,1.408-7.471,3.83
			c0.404,2.426-1.014,5.255-4.442,4.646c-3.435-0.609-5.854,1.418-6.056,3.43c-0.206,2.025-7.88,3.433-8.484,3.433
			C378.217,131.959,368.327,131.765,371.962,134.183z"/>
		<path fill="#0CF569" d="M330.461,330.263c-0.303,3.023,2.733,2.117,6.368,2.117c3.63,0,9.993-0.602,11.203,0.906
			c1.213,1.522,6.666,3.938,8.176,5.158c1.516,1.205,6.363,1.505,6.66,0.294c0.308-1.207-3.327-4.542-5.452-4.237
			c-2.114,0.31-6.661-2.122-9.078-4.239c-2.426-2.122-6.972-2.122-8.785-2.122C337.737,328.141,330.461,330.263,330.461,330.263z"/>
		<path fill="#0CF569" d="M352.568,321.78c-2.767,0.304-2.109,3.632,1.218,3.028C357.12,324.201,355.302,321.472,352.568,321.78z"/>
		<path fill="#0CF569" d="M354.094,346.871c-2.779,0.497-2.125,5.902,1.208,4.917C358.629,350.806,356.818,346.37,354.094,346.871z"
			/>
		<path fill="#0CF569" d="M394.069,343.533c-2.767,0.5-2.109,5.914,1.213,4.918C398.625,347.471,396.796,343.037,394.069,343.533z"
			/>
		<path fill="#0CF569" d="M366.509,344.803c0,0,3.333,0.604,5.453,0.604c2.118,0,3.333,1.216,5.149,2.125
			c1.812,0.911,5.148-1.212,6.357-1.212c1.208,0,2.726,3.633,3.03-0.31c0.302-3.938-3.636-5.755-6.057-6.358
			c-2.428-0.606-5.15,0-6.97,0.3C371.655,340.256,366.509,344.803,366.509,344.803z"/>
		<path fill="#0CF569" d="M620.337,285.434c1.213-0.601,6.052-2.122,8.785-3.333c2.729-1.213,11.51-4.245,12.717-4.245
			c1.219,0,16.355,0.308,18.48-0.606c2.125-0.908,7.582-2.417,9.998,4.245c2.416,6.663,0,4.246-2.416,5.45
			c-2.439,1.213,0.9,3.937,2.105,3.937c1.207,0,5.447,3.939,7.566,3.939c2.125,0,7.277,2.123,7.277,2.123s5.143,3.937,7.881,3.937
			c2.719,0,4.85,2.125,7.869-0.906c3.02-3.03,6.963-6.67,9.99-6.061c3.029,0.609,6.367,3.03,10.295,3.03
			c3.943,0,11.221-0.609,12.432,0.906c1.215,1.519-8.182,6.663-7.578,7.879c0.611,1.207,1.816,0.909,4.854-2.724
			c3.021-3.637,7.57-3.637,11.199-4.546c3.646-0.912,5.465,4.841,6.068,6.655c0.598,1.821,3.328,5.157,5.439,9.096
			c2.125,3.937,4.238,9.384,6.67,13.628c2.426,4.244,3.939,10.605,6.365,13.326c2.42,2.729,4.541,7.275,6.049,10.91
			c1.523,3.63,5.156,7.261,6.365,7.564c1.219,0.303,6.359,7.27,6.666,9.082c0.295,1.813-1.816,5.765,3.018,6.062
			c4.855,0.31,9.094-2.122,10.611-2.728c1.52-0.604,13.326-5.148,14.842-3.336c1.521,1.813-2.117,9.696-2.422,11.819
			c-0.307,2.116-9.092,12.419-9.396,15.14c-0.293,2.734-5.449,7.582-8.777,8.183c-3.338,0.602-10.305,9.092-12.725,11.812
			c-2.43,2.729-6.365,8.783-8.182,9.389c-1.812,0.609-2.422,6.971-1.51,8.186c0.906,1.205,0.297,8.48,3.031,10.9
			c2.717,2.426,3.635,4.23,2.416,6.357c-1.213,2.111,0.607,6.965,0,10.906c-0.604,3.93-3.938,9.086-5.15,10.297
			c-1.209,1.215-8.777,3.338-11.197,6.355c-2.436,3.033-4.549,5.76-3.943,7.271c0.604,1.521,3.031,9.086,2.719,10.904
			c-0.291,1.824-6.047,4.24-8.473,5.445c-2.416,1.227-1.203,3.637-0.605,6.064c0.605,2.414-4.232,6.361-6.357,8.477
			c-2.125,2.121-7.885,9.391-11.818,12.111c-3.932,2.73-8.479,4.852-12.418,4.553c-3.922-0.309-11.512,0-13.018,1.514
			c-1.525,1.521-3.637,1.217-6.674-0.297c-3.02-1.521-3.332-3.643-3.615-6.98c-0.316-3.332-1.227-5.455-1.227-5.455
			s-0.906-5.141-3.645-7.561c-2.723-2.434-3.631-5.152-5.137-6.98c-1.518-1.812-0.604-5.742-0.91-9.066
			c-0.311-3.348-2.119-8.48-3.623-10.607c-1.531-2.121-4.561-7.875-5.775-9.998c-1.205-2.127-2.725-6.354-2.418-12.414
			c0.309-6.059,4.537-9.385,6.971-11.215c2.434-1.811,0.303-4.232-1.816-7.865c-2.119-3.637,0.307-9.703-1.518-11.811
			c-1.814-2.129-7.871-13.338-11.213-15.156c-3.338-1.816-3.625-2.416-1.807-6.66c1.807-4.244,0-8.48,3.02-11.202
			c3.031-2.726,1.521-4.543-1.811-6.358c-3.338-1.818-2.119-2.729-4.855-0.607c-2.729,2.122-6.354,3.332-8.471,1.216
			c-2.125-2.127-1.52-5.461-5.463-7.882c-3.932-2.416-9.079,0.906-10.597,1.519c-1.516,0.604-5.757,3.332-10.007,3.938
			c-4.229,0.604-7.261-0.311-11.511-0.311c-4.229,0-7.874,0.311-8.476,2.433c-0.603,2.117-1.506,3.333-4.234,1.211
			c-2.728-2.122-8.183-6.975-8.183-6.975s-7.572-6.046-9.086-9.692c-1.518-3.629-4.239-6.055-9.993-8.783
			c-5.756-2.726-2.426-5.755-3.032-8.774c-0.6-3.03-3.634-4.246-2.12-4.55c1.521-0.303,1.223-2.423,4.535-6.659
			c3.345-4.239,1.22-8.788,0.616-11.21c-0.616-2.427-3.631-6.061-0.616-9.993c3.032-3.939,6.063-12.418,8.479-14.839
			c2.437-2.427,8.5-5.763,11.813-7.273c3.339-1.52,1.22-5.447,3.031-9.996c1.821-4.543,4.552-6.666,5.456-6.666
			c0.912,0,4.271-3.144,7.876-5.141C612.76,284.219,619.125,286.036,620.337,285.434z M752.707,409.927
			c-0.812-1.312-6.055-0.912-6.973,0.607c-0.896,1.514-1.812,8.473,0.918,9.086C749.369,420.218,754.219,412.347,752.707,409.927z"
			/>
		<path fill="#0CF569" d="M807.826,454.751c-3.789-1.082-4.234,3.941-7.26,7.273c-3.037,3.318-6.363,6.047-7.572,5.754
			c-1.223-0.303-7.879,2.117-5.76,6.656c2.111,4.543,1.818,9.096-0.311,11.213c-2.119,2.123,1.816,8.18,1.229,11.508
			c-0.621,3.334,0.9,5.455,5.143,5.455c4.234,0,5.758-1.521,7.572-5.455c1.812-3.938,2.115-7.871,3.934-11.203
			c1.818-3.334,3.338-10.303,4.244-12.115c0.906-1.814,2.729-7.578,2.426-10.906C811.164,459.599,809.951,455.358,807.826,454.751z"
			/>
		<path fill="#0CF569" d="M917.775,376.907c-1.959,0.87-3.639,11.204,0,12.415c3.646,1.221,5.768-4.844,4.557-6.354
			C921.113,381.456,920.512,375.694,917.775,376.907z"/>
		<path fill="#0CF569" d="M662.75,263.925c-2.857,0-4.25,4.554-2.432,6.062c1.809,1.511,3.639,1.216,5.146-0.909
			C666.994,266.955,664.26,263.925,662.75,263.925z"/>
		<path fill="#0CF569" d="M639.728,268.77c-0.73,1.149,2.424,1.522,3.024,0.307C643.361,267.864,641.842,265.442,639.728,268.77z"/>
		<path fill="#0CF569" d="M675.764,273.926c-1.102,0.655,1.814,2.724,3.334,3.325c1.529,0.606,2.729,2.429,3.945,2.729
			c1.211,0.306,5.141,0,3.934-3.029c-1.207-3.025-3.934-3.025-4.842-3.025C681.232,273.926,677.289,273.017,675.764,273.926z"/>
		<path fill="#0CF569" d="M603.373,212.735c-2.747,0.458-3.032,3.338-4.845,3.338c-1.821,0-3.941,0.604-3.328,2.721
			c0.6,2.122,1.812,3.635,0,4.543c-1.818,0.907,0.296,4.547,2.72,4.849c2.421,0.303,5.154-1.513,7.268-2.418
			c2.12-0.912,5.151-2.727,5.151-5.456c0-2.734-0.6-5.155-1.817-6.364C607.307,212.735,605.187,212.433,603.373,212.735z"/>
		<path fill="#0CF569" d="M606.71,203.652c-2.453,0.817-1.521,3.93-0.309,5.447c1.213,1.513,3.338,4.849,6.355,6.058
			c3.032,1.216,9.396,2.421,6.979,3.637c-2.435,1.216-6.679,4.543-7.273,6.359c-0.615,1.817,5.151,3.637,5.151,3.637
			s-1.824,2.123-0.312,2.724c1.52,0.609,2.435-2.117,4.853-2.117c2.416,0,7.266,1.516,9.694,1.516c2.424,0,6.354-3.333,6.058-5.456
			c-0.31-2.12-3.338-5.447-6.058-6.663c-2.729-1.216-5.763-6.666-7.569-7.876c-1.824-1.21,1.811-4.245-0.312-6.354
			c-2.12-2.125-3.634-1.818-6.061-3.338c-2.416-1.516-4.541,0.307-6.063,2.123C610.339,205.163,608.521,203.04,606.71,203.652z"/>
		<path fill="#0CF569" d="M626.697,245.751c-0.311-2.724-6.359-5.15-10.297-5.751c-3.938-0.604-3.338-2.42,0.902-2.726
			c4.245-0.308,3.943-1.816,7.567-2.422c3.642-0.607,7.282-1.517,10.004-1.817c2.728-0.307,2.728-2.729,2.728-4.546
			c0-1.816,7.569-2.428,7.569-2.428s4.244-3.926,6.672-5.749c2.414-1.818,6.654-1.518,9.992-0.609
			c3.328,0.906-0.307-2.125-1.52-3.63c-1.215-1.516-0.309-4.854,0.615-6.671c0.9-1.82,6.359-2.729,7.867-2.117
			c1.516,0.602,0,3.328,0.303,5.755c0.307,2.426,2.729,3.939,2.729,3.939l2.42-0.303c0,0,0,0,3.939,0s2.725,2.426,5.758,1.513
			c3.023-0.909,6.66-2.117,7.879-2.724c1.199-0.609,4.539-0.609,9.078,0.906c4.547,1.512,2.125-2.729,3.033-5.154
			c0.906-2.423,2.717-6.655,5.746-6.363c3.029,0.307,5.471,2.124,7.885,0.614c2.416-1.518-4.539-3.635-4.539-4.544
			c0-0.911,5.748-0.911,10.895-1.216c5.152-0.301,8.184,0,10.607-0.601c2.418-0.606-1.816-4.852-2.734-4.852
			c-0.896,0-6.967,0.607-10.002,0.306c-3.021-0.306-6.354,1.814-9.082,2.423c-2.725,0.604-3.328-3.639-4.846-5.455
			c-1.52-1.817-2.125-5.142,1.812-6.966c3.938-1.812,10.916-5.756,12.111-7.576c1.217-1.815-4.834-1.507-10.588-1.213
			c-5.76,0.307,0.91,1.822-4.557,7.277c-5.439,5.45-8.17,1.814-12.41,5.45c-4.25,3.63-1.219,3.937,2.73,5.15
			c3.93,1.21,0.604,4.849-0.307,5.755c-0.9,0.905-5.459,4.243-4.846,6.666c0.604,2.413-3.033,3.937-3.033,3.937
			s-11.217,2.421-13.338,2.724c-2.109,0.305-2.727-1.516-2.109-3.333c0.605-1.82-2.434-6.054-2.725-8.78
			c-0.307-2.729-4.842,1.213-5.158,3.03c-0.299,1.818-6.059,2.115-9.381,0.912c-3.338-1.216-5.162-5.761-4.541-6.671
			c0.604-0.907-1.818-5.453-1.818-6.668c0-1.201,6.656-6.05,12.402-7.263c5.773-1.208,13.031-8.186,16.971-11.204
			c3.945-3.032,5.762-6.668,6.979-7.575c1.197-0.912,22.104-6.364,29.686-7.577c7.561-1.206,24.232,1.521,26.949,2.122
			c2.73,0.602,4.238,1.508,10.91,3.937c6.666,2.425,12.414,2.425,16.646,3.035c4.244,0.604,6.973,1.812,9.709,3.027
			c2.721,1.216,0,2.125-6.684,4.237c-6.66,2.12-11.201,1.519-14.83,0.304c-3.643-1.213-5.756-1.213-3.031,0.603
			c2.721,1.817,1.816,2.729,2.115,5.453c0.301,2.731,4.545,0.307,5.457-0.3c0.91-0.604,0.91-1.817,4.248,0.3
			c3.324,2.125,4.537,0.908,6.041,0.606c1.521-0.3,0.312-3.63,1.219-4.846c0.906-1.213,4.553-1.213,5.465-1.816
			c0.904-0.601,3.018-1.509,4.834-1.817c1.812-0.304,1.516,2.724,3.346,3.633c1.805,0.906,0.9-3.937,0.283-5.141
			c-0.602-1.216-1.201-4.546-0.283-5.46c0.9-0.908,7.268-1.515,8.771-0.299c1.518,1.213-2.414,4.846-1.508,6.963
			c0.912,2.121,3.021-1.204,4.541-3.026c1.514-1.817,4.84,0,10.293-0.909c5.451-0.908,4.244-3.939,9.986-2.121
			c5.77,1.82,4.25,1.82,6.07,0c1.82-1.818,5.146,0.307,8.471-0.907c3.338-1.216,3.338,0,5.771,1.213
			c2.416,1.208,5.447-2.429,6.66-3.64c1.207-1.214,6.049-1.214,8.479-0.904c2.434,0.299,5.445,1.812,7.873,1.812
			c2.422,0,6.357,1.817,6.357,1.817s5.152,1.821,6.373,0.608c1.199-1.216-0.309-2.729-4.855-4.854c-4.541-2.109-2.729-5.742,0-6.048
			c2.73-0.305,2.426-1.816,4.551-3.029c2.113-1.208,4.846-5.757,7.262-4.852c2.426,0.912,4.551,2.729,7.588,4.242
			c3.014,1.516,0.291,3.638-0.312,5.147c-0.6,1.521,0.605,7.271,1.514,8.177c0.918,0.916-0.906,4.246-3.322,5.762
			c-2.424,1.51-5.77,4.846-4.844,5.447c0.891,0.604,8.166-2.724,8.166-2.724s4.557-5.45,6.666-6.963
			c2.119-1.522,4.238-1.522,4.842,0.303c0.609,1.812,3.941,2.421,6.977,1.21c3.033-1.21,0-2.12-0.299-4.849
			c-0.312-2.731-5.146-1.208-7.885-0.609c-2.729,0.609-4.854,3.338-5.742,3.338c-0.93,0-0.93-1.822-0.316-4.554
			c0.611-2.721-1.203-4.234-1.203-5.742c0-1.522,0.904-1.522,3.023-4.543c2.125-3.037,2.125,2.114,2.424,4.838
			c0.303,2.727,2.422,1.522,4.236,1.213c1.816-0.305,0.916-3.937,2.436-5.755c1.51-1.822,4.848-2.121,7.861,0.609
			c3.029,2.729,2.725,1.815,6.369,3.026c3.635,1.213,3.939,1.518,4.246,4.245c0.295,2.726,2.721,3.025,4.232,2.109
			c1.508-0.906,0.307-4.539-0.611-5.742c-0.9-1.216-8.178-3.335-10.607-5.458c-2.408-2.122,1.221-2.122,3.953-2.122
			c2.729,0,7.873,0.305,7.873,0.305s5.75-1.216,8.779-3.338c3.031-2.112,5.156-2.112,8.182-3.325
			c3.021-1.217,7.883-1.217,10.91-0.604c3.021,0.604,5.137-1.212,8.178-2.428c3.025-1.205,6.357-2.12,7.271-1.51
			c0.906,0.604,8.461,2.42,9.68,2.125c1.215-0.309,3.939-1.213,8.785-3.038c4.85-1.816,2.729-1.508,4.535-2.422
			c1.826-0.908,4.855-1.21,11.217,1.516c6.357,2.732,0,0,1.818,1.82c1.811,1.816,2.723-0.307,6.967-0.913
			c4.246-0.6,6.973,0,9.691,0.304c2.729,0.303,8.783,0.303,11.508,2.12c2.732,1.814-1.812,5.755-3.332,6.968
			c-1.518,1.211,2.424,2.12,3.645,1.814c1.197-0.304,11.201,0,15.736,0.607c4.557,0.605,6.369,2.729,8.482,2.729
			c2.125,0,5.459-0.905,6.672-2.124c1.213-1.212,8.777-1.815,11.201-2.117c2.424-0.302,9.094,0,10.008,0.602
			c0.908,0.609,1.812,3.639,1.812,6.062c0,2.429,2.721,4.541,4.844,4.848c2.125,0.305,6.059-3.634,7.561-4.241
			c1.521-0.606,3.332,2.729,4.24,1.823c0.908-0.909,8.49,0.294,11.521-1.216c3.021-1.513,4.832,0,6.357-0.607
			c1.504-0.606,3.938-3.934,3.938-5.152c0-1.212,1.215-2.117,0-3.933c-1.219-1.817-5.463-0.612-10.004-1.817
			c-4.535-1.213-0.291-3.029,1.521-4.245c1.816-1.205,4.84,0,7.869,0.615c3.025,0.601,1.828-0.915,3.34-0.915
			c1.52,0,6.961,1.516,9.986,1.516c3.023,0,5.459,3.326,5.459,3.326s-8.484,2.426-10.299,2.426c-1.812,0-0.605,2.421,0.91,2.421
			s3.635,0.912,5.754,2.427c2.117,1.515,11.508,0,12.715,0c1.221,0,4.859,1.515,8.488,3.63c3.629,2.124,6.061,3.03,6.061,3.03
			s5.143,0,10.295-0.602c5.145-0.612,11.82-0.612,13.029,0.296c1.207,0.909,4.547,1.818,6.963,3.938
			c2.41,2.122,4.238,1.218,7.576,0.908c3.332-0.307,6.66-0.908,9.688-0.908c3.033,0,13.021-0.305,14.84,2.426
			c1.812,2.729,3.939,2.122,3.939,2.122s2.729-4.854,3.938-5.762c1.221-0.906,5.15,0.613,7.572,1.814
			c2.42,1.216,14.229,0,17.27,0.617c3.023,0.599,7.27,3.629,4.85,6.057c-2.426,2.418,1.818,6.666,0.912,9.08
			c-0.912,2.429-3.338,2.727-5.762,3.333c-2.43,0.606,2.424,3.64,4.549,5.765c2.119,2.12-1.221,2.721-3.346,1.814
			c-2.113-0.908-7.57,0.306-14.543,2.123c-6.967,1.816-9.691,5.445-16.951,5.747c-7.271,0.307-4.246-0.302-13.322-0.302
			c-9.088,0-8.789,2.425-10.607,5.458c-1.816,3.026,0.912,2.422,0,4.841c-0.906,2.427-2.42,5.151-2.42,7.273
			c0,2.117-5.459,2.426-7.277,4.241c-1.814,1.822-4.842,6.362-9.99,9.688c-5.146,3.335-8.779,8.488-8.779,8.488
			s0.912-5.153,3.326-8.786c2.422-3.631-2.727-8.788-3.029-12.725c-0.297-3.937,1.521-5.152,4.541-8.785
			c3.029-3.63,10.309-4.849,13.334-6.66c3.033-1.823,15.455-10.296,15.455-10.296s-2.43,1.508-5.449,2.724
			c-3.045,1.204-6.674,3.633-9.092,3.633c-2.439,0-1.51-2.429-1.822-4.849c-0.309-2.415-6.061-0.602-8.188,1.817
			c-2.113,2.425-6.059,3.937-10.283,6.971c-4.244,3.03-3.031,2.723-5.762,3.03c-2.732,0.303-7.273-1.517-9.387-3.03
			c-2.125-1.516-4.25,1.208-10.908,1.513c-6.658,0.299-14.242-0.606-17.271-0.305c-3.025,0.305-10.6,9.085-15.146,10.603
			c-4.541,1.513-10.297,4.245-8.773,6.364c1.518,2.117,4.232-1.82,5.457-1.82c1.207,0-0.912,4.246,1.812,4.246
			s4.227-1.525,6.969-1.822c2.727-0.301,4.852,2.117,5.445,5.453c0.611,3.327-1.201,6.056-2.414,10.301
			c-1.215,4.24-3.031,8.474-7.879,12.11c-4.846,3.638-12.727,10.301-14.238,12.115c-1.518,1.819-6.973,0.308-7.873-0.905
			c-0.9-1.216-3.633,2.724-5.758,3.633c-2.117,0.908-4.238,2.728-4.238,5.152c0,2.424-6.051,2.424-6.051,3.937
			c0,1.511,3.637,5.757,5.143,7.874c1.51,2.123-0.312,8.791-3.029,10.298c-2.729,1.511-3.924,3.329-7.572,1.217
			c-3.629-2.125-0.602-3.341,0.916-6.669c1.518-3.333-1.518-5.147-2.129-6.057c-0.604-0.906-3.025,1.816-4.232,2.117
			c-1.213,0.308-1.213-2.729-0.309-4.546c0.908-1.814-0.604-5.747-1.514-6.049c-0.904-0.308-6.666,4.541-9.086,4.234
			c-2.439-0.295-0.312-5.75,0.604-7.266s-1.814-0.307-3.635,1.21c-1.818,1.513-5.754,4.851-7.271,4.544
			c-1.52-0.305-4.543,2.418-2.111,4.237c2.418,1.817,3.33,3.333,4.846,3.634c1.504,0.308,5.445-0.606,6.969-0.907
			c1.508-0.301,4.541,2.123,1.508,4.846c-3.025,2.731-9.387,3.037-8.168,4.854c1.195,1.816,4.232,4.537,6.66,8.777
			c2.418,4.24,1.508,8.78,2.125,12.116c0.602,3.335-8.785,10.297-11.52,12.418c-2.729,2.123-5.453,7.271-9.998,9.695
			c-4.549,2.426-14.238,4.541-15.75,3.63c-1.521-0.906-5.762,1.521-5.453,4.849c0.299,3.33,2.422,3.03,2.422,3.938
			c0,0.91-3.035,4.548-4.232,6.062c-1.215,1.511-5.461,0-4.842-4.547c0.604-4.546,3.627-6.363,3.32-8.48
			c-0.295-2.112-3.025-3.328-4.844-1.516c-1.816,1.818-7.57,6.966-7.57,6.966s2.125,5.452,4.844,7.577
			c2.729,2.121,4.547,5.143,8.184,9.688c3.629,4.545,0.908,8.48,0,11.818c-0.904,3.329-3.934,3.329-6.363,3.936
			c-2.428,0.604-3.029,1.52-3.941,3.332c-0.9,1.824-5.137,3.936-5.754,2.427c-0.596-1.521-4.535-5.154-4.535-5.154
			s-2.73-5.454-6.666-8.179c-3.934-2.727-5.447-3.934-5.447-1.203c0,2.727-2.424,7.865-2.424,9.688c0,1.812-5.465-5.457-5.465-8.484
			c0-3.021-0.906-8.179-0.602-13.02c0.312-4.849-6.357-0.311-6.357-0.311s-3.031,5.147-4.535,5.147
			c-1.521,0-2.125-4.238-1.832-7.872c0.311-3.633-1.502-6.969-2.418-8.181c-0.912-1.214-6.057-6.055-6.963-9.393
			c-0.906-3.33-2.727-2.117-4.537-0.297c-1.826,1.817-1.223,1.817-8.48,1.817c-7.275,0-6.977,4.543-10.619,7.265
			c-3.631,2.729-6.648,7.876-10.896,9.692c-4.244,1.812-6.062,3.631-6.062,5.755c0,2.115,0,7.564-0.898,10.603
			c-0.912,3.032-1.52,7.271-3.631,10.301c-2.131,3.029-3.941,7.871-5.762,7.871c-1.812,0-2.434-4.229-2.434-6.965
			c0-2.729-5.141-9.085-6.357-11.207c-1.213-2.123-5.754-11.509-5.754-11.509s-3.633-9.995-3.32-12.727
			c0.291-2.727,0.291-10.296,0.291-10.296s-4.844,4.849-6.969,4.539c-2.117-0.305-4.232-3.633-3.938-7.566
			c0.301-3.939-3.629-3.641-5.754-4.245c-2.119-0.604-4.846-6.051-6.355-6.051c-1.527,0-2.432,0-3.641,1.814
			c-1.207,1.816-7.57,1.511-9.096,1.511c-1.521,0-10.598-0.307-13.314-1.216c-2.729-0.905-5.758-6.356-7.275-6.958
			c-1.502-0.605-6.049,3.326-7.865,2.727c-1.814-0.604-5.465-3.637-9.396-5.454c-3.928-1.817-5.143-6.057-6.66-8.78
			c-1.514-2.724-6.666,1.508-6.066,4.538c0.615,3.029,7.279,6.971,7.279,9.093c0,2.114,1.215,2.727,4.541,5.447
			c3.34,2.724,0.607,4.242,2.723,4.843c2.121,0.604,5.15-2.424,8.188-3.934c3.025-1.521,2.719-3.634,4.238-3.634
			s1.197,3.936,3.629,4.232c2.422,0.309,8.785,3.938,10.303,6.369c1.521,2.417-1.518,3.938-2.725,6.05
			c-1.219,2.122-4.844,8.183-7.885,10.607c-3.031,2.421-6.352,5.75-10.898,6.652c-4.541,0.909-5.146,3.34-8.779,3.641
			c-3.633,0.307-13.631,5.154-15.146,6.062c-1.512,0.909-9.697,3.328-12.117,2.421c-2.426-0.907-3.332-6.967-4.242-11.511
			c-0.906-4.538-2.107-6.967-3.018-8.783c-0.912-1.814-6.371-6.658-7.584-7.569c-1.213-0.905-4.232-8.182-4.545-11.206
			c-0.305-3.032-3.629-1.823-4.234-5.149c-0.604-3.336-3.943-7.878-4.547-10.003c-0.604-2.12-6.67,0.311-9.08,0.612
			c-2.432,0.305-6.971-1.817-6.363-6.671c0.602-4.833,3.029-4.833,6.057-4.833c3.031,0,1.816-1.521,4.846-4.554
			c3.025-3.029,3.943-9.078,4.234-13.017c0.311-3.942-2.115-2.125-4.535-1.52c-2.424,0.604-6.062,1.52-7.271,1.21
			c-1.215-0.301-6.053-1.817-6.957-0.908c-0.928,0.908-6.064,0.301-7.27-1.21c-1.227-1.516-7.275-3.334-7.885-4.545
			c-0.611-1.21,0-8.478-1.215-10.298c-1.209-1.817-3.936,0.305-5.459,1.513c-1.506,1.216-5.738,2.122-4.535,3.031
			c1.215,0.908,5.146,2.724,4.854,5.142c-0.314,2.428-3.037,3.037-4.547,4.245c-1.512,1.213-4.545,3.03-5.457,1.516
			c-0.912-1.516-3.943-8.179-4.855-9.392c-0.898-1.204-3.629-4.234-4.527-6.963c-0.906-2.727-4.244-3.638-6.359-5.761
			c-2.125-2.114-8.186-5.45-10.6-7.865c-2.436-2.425-6.68-4.245-6.979-1.215c-0.303,3.032,4.244,3.63,6.072,6.662
			c1.812,3.03,5.744,4.846,7.863,5.753c2.119,0.907,7.885,4.846,7.885,4.846s-2.432,0.909-4.547,0.609
			c-2.131-0.302-0.309,3.638-0.605,5.747c-0.307,2.122-2.438,2.122-3.031-0.295c-0.611-2.429-2.436-5.152-3.635-6.062
			c-1.213-0.907-9.092-3.33-10.305-3.939c-1.215-0.604-6.359-3.937-6.957-6.66c-0.604-2.724-5.148-3.032-6.369-2.42
			c-1.213,0.604-5.758,3.93-7.875,3.93c-2.111,0-5.451-1.51-7.887-1.818c-2.41-0.293-2.711,3.941-3.623,6.364
			c-0.912,2.426-4.846,0.604-6.961,2.729c-2.12,2.122-5.766,4.243-4.854,6.062c0.917,1.814,2.429,1.814-0.297,3.328
			c-2.732,1.51-4.25,4.543-6.972,4.843c-2.727,0.307-6.354,1.516-7.876,0.606c-1.521-0.906-2.723,3.034-3.634,3.942
			c-0.901,0.912-2.428-2.729-3.938-4.242c-1.52-1.515-5.451-0.307-6.659-0.606c-1.213-0.304-2.427-3.033-3.938-4.239
			c-1.52-1.216-1.213-3.939,0-4.848c1.208-0.909,2.416-2.422,1.515-5.148c-0.911-2.729-1.515-8.791,1.52-9.988
			c3.027-1.218,10.294,0,13.923,0c3.646,0,9.87,1.254,10.905-0.617C626.39,251.507,626.999,248.483,626.697,245.751z
			 M740.896,192.441c-1.033,2.857,6.969,5.15,8.473,3.028C750.891,193.348,742.402,188.207,740.896,192.441z M730.596,265.747
			c0.605,1.208,3.637-1.822,6.057-1.822c2.416,0,7.879,0.913,9.393-1.209c1.512-2.121,6.355-2.424,10.301-1.82
			c3.943,0.606,7.271,3.335,10,3.638c2.73,0.304,9.988-0.303,12.414-0.909c2.416-0.609,1.814-4.852-2.125-6.966
			c-3.93-2.12-7.268-5.45-10.895-6.663c-3.645-1.213-4.855-2.426-2.73-3.033c2.125-0.603,4.844-3.026,1.816-3.026
			c-3.029,0-5.756,0.909-6.066,2.424c-0.291,1.513-2.113,3.333-3.32,3.941c-1.215,0.606-4.236,3.022-5.148,1.205
			c-0.912-1.812-4.24-7.27-5.754-7.57c-1.516-0.304-3.938,0-5.762,3.026c-1.812,3.033-3.934,6.063-5.758,7.27
			c-1.811,1.213-4.23,4.846-2.416,5.455C732.408,260.292,730.596,265.747,730.596,265.747z M799.961,244.538
			c-3.668,2.453-4.852,5.763-3.338,7.88c1.521,2.121,5.756,8.783,7.877,9.389c2.119,0.604,9.691,1.817,6.664,4.546
			c-3.025,2.724-3.631,3.633-6.363,3.328c-2.729-0.297-1.514,7.27,0.611,7.875c2.121,0.609,8.479,2.729,10.596,3.03
			c2.125,0.302,9.092-0.607,8.785-2.421c-0.303-1.822-1.516-9.088-3.932-10.902c-2.439-1.821,3.334-3.638,1.811-5.154
			c-1.52-1.514-3.629-0.908-4.846-2.724c-1.215-1.817-1.818-3.631-3.635-4.846c-1.812-1.216-3.324,1.214-3.027-2.121
			c0.307-3.333,4.541-5.455,6.357-3.635c1.814,1.817,7.271,0.91,8.484,0c1.215-0.909-2.432-3.638-3.338-5.458
			c-0.906-1.817-6.967-3.325-7.873-2.724c-0.906,0.609-3.328,2.426-5.754,3.937C806.619,246.054,801.779,243.325,799.961,244.538z"
			/>
		<path fill="#0CF569" d="M834.783,158.819c-2.23,2.242-6.955,1.511-10.293-0.304c-3.338-1.818-7.271-2.115-9.076-2.727
			c-1.822-0.601,0.291-4.239,2.412-5.146c2.125-0.905,7.877-3.639,12.127-5.455c4.225-1.814,5.443-5.447,8.475-5.447
			c3.029,0,17.564-3.033,19.381-2.421c1.824,0.607,10.598,1.205,12.432-1.218c1.811-2.422,8.17-0.907,6.656,1.218
			c-1.518,2.115-6.973,6.96-10.604,6.054c-3.635-0.912-13.934-0.604-18.479,0c-4.549,0.602-8.785,3.331-12.729,5.453
			c-3.941,2.125-3.037,4.546-1.508,4.846C835.09,153.972,836.598,157.002,834.783,158.819z"/>
		<path fill="#0CF569" d="M1141.322,219.103c-1.752,0.495-6.967-0.609-5.15,3.63c1.818,4.236,2.125,7.272,1.818,10.601
			c-0.297,3.339,0,10.298,0.604,11.204c0.605,0.912,3.021,3.031,4.543,2.425c1.514-0.603-0.605-6.659-0.605-7.872
			c0-1.213,2.119-3.033,3.338-3.333c1.213-0.3,0-5.453-1.531-7.572c-1.506-2.125-3.629-3.33-2.41-3.637
			c1.213-0.305,2.725-2.721,1.816-3.335C1142.832,220.61,1143.438,218.494,1141.322,219.103z"/>
		<path fill="#0CF569" d="M1138.297,249.996c-2.242,0.551-3.025,3.636-3.025,4.543s-8.479,2.721-5.766,5.148
			c2.727,2.421,5.463,0.604,9.697,0.3c4.234-0.3,8.178-1.511,8.178-1.511s6.361,0.296,5.455-2.724
			c-0.914-3.029-7.572-3.335-8.785-3.029C1142.832,253.026,1140.709,249.392,1138.297,249.996z"/>
		<path fill="#0CF569" d="M1131.33,261.808c-2.236,1.341-0.912,6.671-2.73,10.304c-1.811,3.629-3.338,6.962-4.541,6.962
			c-1.207,0-7.568,2.422-9.393,4.239c-1.824,1.813-10.594-1.516-11.801,0c-1.229,1.521-3.641,3.338-5.156,4.541
			c-1.521,1.212-5.754,0.305-4.848,3.941c0.904,3.634,3.025,6.967,4.848,6.967c1.818,0,4.244-1.213,4.244-4.546
			c0-3.333,4.23,0,6.354-0.301c2.125-0.3,3.332-2.425,4.234-4.849c0.92-2.415-1.203,1.218,2.426,2.123
			c3.646,0.908,4.848-1.519,4.848-2.428c0-0.907,6.666-2.418,7.889-3.325c1.205-0.906,6.057-2.421,6.361-3.638
			c0.293-1.21,0-8.179,1.514-8.78c1.504-0.612,3.629-0.612,1.209-4.846C1134.355,263.925,1134.355,259.988,1131.33,261.808z"/>
		<path fill="#0CF569" d="M1064.691,321.472c-4.49,0.701-7.271,10.309-3.643,9.999
			C1064.691,331.172,1068.625,320.871,1064.691,321.472z"/>
		<path fill="#0CF569" d="M1251.58,535.933c-1.213,0.602,0,3.939,1.209,5.139c1.219,1.223,1.824,5.455,1.508,6.672
			c-0.289,1.215-5.445,2.729-3.02,4.25c2.432,1.51,6.967,0,6.357,1.807c-0.602,1.814-3.02,4.25-0.301,4.852
			c2.729,0.604,3.629-2.127,4.844-4.234c1.225-2.127,2.131-3.938,4.234-5.15c2.123-1.211,0-3.938-1.205-3.938
			c-1.213,0-1.809,1.52-4.547,0c-2.717-1.518-2.113-0.912-3.93-3.939C1254.914,538.349,1254.613,534.413,1251.58,535.933z"/>
		<path fill="#0CF569" d="M1249.148,555.317c-0.482,1.467-3.02,1.814-4.834,3.328c-1.812,1.514,0,2.121-5.15,5.146
			c-5.16,3.035-11.514,6.357-12.721,9.082c-1.207,2.73,1.207,4.25,6.055,4.549c4.846,0.307,3.633,1.209,6.971-2.432
			c3.326-3.621,6.357-5.744,10.295-8.771c3.941-3.033,3.941-7.576,3.941-7.576S1249.455,554.411,1249.148,555.317z"/>
		<path fill="#0CF569" d="M1147.982,557.739c-3.332,3.326,3.35,3.326,2.438,6.664c-0.912,3.334,4.541,2.117,6.053,1.52
			c1.504-0.607,5.146-7.582,4.529-9.406c-0.594-1.811-6.654,3.035-8.166,2.73C1151.332,558.948,1147.982,557.739,1147.982,557.739z"
			/>
		<path fill="#0CF569" d="M1125.877,534.116c0-3.094-1.816,3.326-3.025,0.602c-1.219-2.725,1.209-7.27-1.814-5.455
			c-3.029,1.818-4.547,3.332-4.852,4.855c-0.307,1.514-5.754,2.111-5.457,0.602c0.311-1.52,2.43-5.146,0.311-6.656
			c-2.127-1.521-5.754-2.129-8.484-3.035c-2.729-0.91,0.314-3.938-6.967-2.436c-7.271,1.521-9.988,3.342-9.988,3.342
			s-6.676-2.121-8.785,0.299c-2.125,2.432-5.148,6.971-5.148,6.971s-8.477,0.314-10.307,0.613c-1.816,0.305-4.852,2.719-7.562,3.631
			c-2.736,0.906-7.281,1.812-9.09,0.305c-1.82-1.52-4.85-4.23-3.938-6.053c0.9-1.818,7.561-4.25,5.143-7.285
			c-2.426-3.018-3.93-3.631-4.238-5.443c-0.309-1.814,0.912-2.729-2.721-6.357c-3.641-3.633-2.729-7.877-1.221-8.479
			c1.521-0.609-0.918-4.24-2.111-5.758c-1.215-1.52-1.215-6.971,1.193-8.49c2.438-1.504,9.697-7.264,11.822-7.264
			s5.447,0.912,7.572-0.604c2.125-1.512,8.48-0.906,8.48-2.121c0-1.205,0.607-6.057,2.115-7.568c1.52-1.52,7.879-3.033,8.791-4.25
			c0.904-1.205,2.42-6.354,4.232-7.262c1.826-0.906,3.344-3.023,6.076,0c2.715,3.033,5.445,4.244,6.641,1.215
			c1.223-3.029,0.312-2.121,3.035-4.848c2.73-2.729-0.307-7.273,2.428-4.557c2.727,2.734,4.541,4.854,4.541,4.854
			s-0.291-6.057,1.521-6.057s3.629,3.029,4.533,3.029c0.912,0,9.094-1.828,10.607,0.299c1.504,2.117-4.25,7.877-2.125,9.998
			c2.125,2.117,6.357,3.322,9.389,5.146c3.025,1.814,6.656,6.059,8.18,2.426c1.516-3.637,4.545-9.08,2.42-11.812
			c-2.107-2.725,0.615-11.514,1.521-12.125c0.912-0.594,2.424,6.977,5.453,10.311c3.029,3.332,6.062,5.754,7.57,9.379
			c1.52,3.643,1.809,10,4.539,12.121c2.723,2.123,8.18,2.123,7.873,4.848c-0.289,2.73,6.061,7.877,9.395,13.033
			c3.332,5.15,3.639,16.354,3.639,21.197c0,4.842-3.639,11.207-6.363,14.846c-2.727,3.631-3.633,8.473-4.84,10.291
			c-1.215,1.818-0.607,1.514-5.152,2.729c-4.547,1.217-7.871,4.854-9.084,3.639c-1.203-1.209-5.453-3.332-6.666-1.818
			c-1.215,1.518-2.73,4.842-4.85,1.205s-6.975-3.02-7.879-3.637c-0.9-0.604-0.9-2.42-0.9-5.455c0-3.021-3.938-3.322-4.25-4.234
			C1126.789,535.933,1125.877,535.022,1125.877,534.116z"/>
		<path fill="#0CF569" d="M1265.502,474.737c3.951,1.516,10.91-5.449,8.186-6.355
			C1270.965,467.474,1265.502,474.737,1265.502,474.737z"/>
		<path fill="#0CF569" d="M1227.051,489.882c-0.598,2.949-4.246,1.521-6.055-1.205c-1.828-2.725-5.463-4.848,0-3.637
			C1226.443,486.257,1227.344,488.378,1227.051,489.882z"/>
		<path fill="#0CF569" d="M971.703,391.145c-3.764,0.744,5.453,7.271,6.361,8.181c0.902,0.907,9.084,7.877,9.084,11.209
			c0,3.328,5.443,11.203,6.963,12.408c1.52,1.217,9.094,5.76,10.307,8.18c1.213,2.428,3.938,3.041,3.938-0.303
			c0-3.334,0.604-7.271,2.107-9.082c1.521-1.824,0.912-4.549-1.504-4.244c-2.418,0.309-4.541-3.939-8.484-6.654
			c-3.938-2.732-6.967-4.549-10.598-8.481c-3.629-3.938-8.18-6.36-10.602-8.483C976.842,391.748,973.213,390.842,971.703,391.145z"
			/>
		<path fill="#0CF569" d="M983.51,375.096c-2.414,0.301-2.414,4.85-1.219,6.36c1.219,1.515,3.65,0.603,5.16,6.054
			c1.516,5.454,4.545,10.909,5.75,13.026c1.217,2.117,6.367,5.145,8.186,6.666c1.818,1.508,4.535-0.613,3.34-2.432
			c-1.215-1.813-3.646-4.538-3.953-6.661c-0.297-2.116-1.814-5.455-4.232-9.086c-2.426-3.641-4.541-4.545-6.057-6.969
			C988.967,379.63,983.51,375.096,983.51,375.096z"/>
		<path fill="#0CF569" d="M1008.959,432.339c-2.207,2.766,0.604,4.852,1.504,5.449c0.912,0.605,4.25,1.211,7.281,0.906
			c3.027-0.307,7.26-1.209,3.936-3.023c-3.332-1.814-7.271,0-8.482-2.42C1011.984,430.819,1010.172,430.819,1008.959,432.339z"/>
		<path fill="#0CF569" d="M1026.523,434.765c-2.125,0.906-5.445,1.508-3.031,3.631c2.422,2.117,3.943,3.025,7.578,2.729
			c3.629-0.305,9.086,1.818,9.385,0c0.312-1.812-3.332-4.549-4.838-4.549C1034.104,436.573,1026.523,434.765,1026.523,434.765z"/>
		<path fill="#0CF569" d="M1056.207,444.759c-0.68,2.703,4.541,3.939,4.846,0.912
			C1061.354,442.636,1056.818,442.337,1056.207,444.759z"/>
		<path fill="#0CF569" d="M1072.27,446.88c0.473,3.312,6.65-1.814,6.65-1.814s4.857-0.607,4.857-2.729s-4.857-4.852-6.672-2.432
			C1075.291,442.337,1071.965,444.759,1072.27,446.88z"/>
		<path fill="#0CF569" d="M1058.936,412.954c-1.812,0.605-1.514,2.129-2.113,5.141c-0.611,3.035-3.33,5.152-0.912,6.676
			c2.426,1.514,6.967-5.146,8.18-3.029c1.213,2.123-0.307,3.029,1.818,5.748c2.121,2.729,6.061,2.428,6.061,2.428
			s-0.307-7.27-3.639-9.088c-3.334-1.818-5.453-3.93-1.521-3.332c3.939,0.602,6.064-0.902,5.158-2.721
			c-0.908-1.818-6.666-0.91-8.496-0.604C1061.654,414.464,1058.936,412.954,1058.936,412.954z"/>
		<path fill="#0CF569" d="M1060.748,406.892c-2.109,2.119-0.602,4.24,2.721,3.943c3.338-0.305,10.309-1.217,11.822-1.217
			c1.52,0,3.629-3.941,2.426-3.941c-1.213,0-9.688,1.521-10.598,1.824C1066.201,407.804,1060.748,406.892,1060.748,406.892z"/>
		<path fill="#0CF569" d="M1091.643,402.653c-2.771-1.188-7.861,9.992-4.229,10.904
			C1091.043,414.464,1093.771,403.559,1091.643,402.653z"/>
		<path fill="#0CF569" d="M1050.152,386.6c-0.119-2.141-4.854,0.605-5.162,2.727c-0.287,2.127,3.338,3.938-2.41,3.938
			c-5.771,0-6.057,4.543-7.271,5.461c-1.207,0.906-2.422,1.205-4.854,1.812c-2.414,0.604-3.02,3.021-3.621,4.542
			c-0.613,1.51-4.848-2.724-6.062-1.521c-1.219,1.214-0.301,6.978,1.814,11.817c2.119,4.842,7.572,7.869,9.084,7.869
			c1.516,0,4.551,0,6.676,0.613c2.109,0.604,9.076,1.205,8.779-1.521c-0.311-2.719-0.912-6.963,2.115-9.689
			c3.033-2.725,6.061-4.234,4.551-8.186c-1.518-3.929-4.551-6.353-2.432-8.168c2.127-1.815,4.547-2.427,4.547-3.938
			C1055.906,390.842,1050.76,396.6,1050.152,386.6z"/>
		<path fill="#0CF569" d="M1064.992,343.894c-2.119,0,0.307,3.335-2.721,5.452c-3.027,2.112-6.365,3.021-4.553,6.658
			c1.812,3.639,8.186,6.359,6.658,7.881c-1.508,1.514-6.049,4.543-6.658,7.271c-0.604,2.719,7.271-4.245,9.396-6.978
			c2.119-2.724,6.354-1.199,7.27-2.724c0.902-1.515,0.902-1.515,0.902-1.515s-3.326-0.606-6.053-1.515
			c-2.73-0.91-6.057,2.427-4.549-2.425c1.512-4.841,6.057-3.932,5.146-7.564C1068.932,344.803,1065.904,343.894,1064.992,343.894z"
			/>
		<path fill="#0CF569" d="M1067.719,370.247c-1.029,0.372-3.633,5.754-0.295,5.754c3.322,0,9.08,0.906,7.867-0.604
			C1074.086,373.873,1071.057,369.029,1067.719,370.247z"/>
		<path fill="#0CF569" d="M1077.717,365.707c-1.213-0.09-5.156,6.354,0.303,6.05
			C1083.471,371.458,1081.951,366.001,1077.717,365.707z"/>
		<path fill="#0CF569" d="M1078.629,376.907c-4.24,5.464-3.943,4.25-6.971,3.034c-3.033-1.211-7.879,2.72-6.967,4.236
			c0.898,1.518,7.578-0.305,9.082,2.418c1.518,2.727,1.518,3.031,4.545,2.428c3.037-0.608,6.062-4.846,5.148-6.965
			C1082.568,379.941,1078.629,376.907,1078.629,376.907z"/>
		<path fill="#0CF569" d="M1099.229,412.646c-2.273,2.273-3.338,2.438,1.818,3.338c5.141,0.912,6.654,0.912,4.535,3.328
			c-2.119,2.426-3.629,5.451-1.814,5.754c1.814,0.309,7.271-1.205,7.873,0c0.607,1.215-1.209,1.514,4.85,2.42
			c6.053,0.918,7.271,3.045,8.48,4.246c1.197,1.209,4.846,5.146,2.424,5.146c-2.424,0-5.15,3.023-3.332,3.334
			c1.814,0.297,7.271-0.908,7.582,0c0.297,0.906,3.326,6.664,6.35,6.361c3.031-0.312,4.842-5.76,6.348-7.271
			c1.531-1.52,7.584-2.426,8.189,0.303c0.615,2.729,2.436,5.453,6.064,7.27c3.631,1.818,7.873,3.633,8.184,2.117
			c0.295-1.516-1.826-7.271-4.25-8.18c-2.422-0.912-6.654-6.057-6.654-8.184c0-2.104-3.635-2.725-5.447-4.23
			c-1.832-1.518-3.34-5.762-7.891-6.666c-4.541-0.912-5.748-2.43-10.592-4.844c-4.859-2.434-15.754-2.434-16.062-0.91
			c-0.293,1.51,0,0-3.631-1.211c-3.641-1.219-6.357,0-7.27-2.129C1104.072,410.534,1101.953,409.927,1099.229,412.646z"/>
	</g>
</g>
</svg>
