<?xml version="1.0" encoding="utf-8"?>
<!-- Generator: Adobe Illustrator 16.0.0, SVG Export Plug-In . SVG Version: 6.00 Build 0)  -->
<!DOCTYPE svg PUBLIC "-//W3C//DTD SVG 1.1//EN" "http://www.w3.org/Graphics/SVG/1.1/DTD/svg11.dtd">
<svg version="1.1" id="Layer_2" xmlns="http://www.w3.org/2000/svg" xmlns:xlink="http://www.w3.org/1999/xlink" x="0px" y="0px"
	 width="200px" height="200px" viewBox="0 0 200 200" enable-background="new 0 0 200 200" xml:space="preserve">
<line fill="none" stroke="#000000" stroke-width="1.92" stroke-miterlimit="10" x1="4" y1="3.997" x2="196.006" y2="196.003"/>
<line fill="none" stroke="#000000" stroke-width="1.92" stroke-miterlimit="10" x1="196.006" y1="3.997" x2="4" y2="196.003"/>
<g>
	<path d="M97.34,50H77.007v-2.111L88,35.06c1.958-2.31,3.312-4.203,4.062-5.68c0.75-1.476,1.125-2.933,1.125-4.372
		c0-2.035-0.547-3.637-1.641-4.808c-1.094-1.17-2.712-1.755-4.854-1.755c-2.387,0-4.223,0.708-5.508,2.123
		c-1.285,1.416-1.928,3.225-1.928,5.428h-2.57l-0.046-0.138c-0.077-2.723,0.803-5.029,2.639-6.919s4.307-2.834,7.413-2.834
		c2.861,0,5.118,0.803,6.77,2.41s2.479,3.779,2.479,6.518c0,1.806-0.543,3.611-1.629,5.416c-1.086,1.806-2.685,3.993-4.796,6.563
		l-9.042,10.557l0.046,0.115H97.34V50z"/>
	<path d="M123.364,18.927c-3.748,4.376-6.566,8.755-8.457,13.139c-1.889,4.383-2.834,9.26-2.834,14.63V50h-2.754v-3.305
		c0-5.309,0.982-10.22,2.949-14.733c1.967-4.513,4.717-8.858,8.25-13.035h-18.887v-2.341h21.732V18.927z"/>
</g>
<g>
	<path d="M92.312,178.5h-2.754v-31.051l-7.918,0.965v-2.203l10.672-1.607V178.5z"/>
	<path d="M118.359,178.5h-2.754v-31.051l-7.917,0.965v-2.203l10.671-1.607V178.5z"/>
</g>
<g>
	<path d="M154.576,116.948h-2.754V85.897l-7.918,0.964v-2.203l10.672-1.606V116.948z"/>
	<path d="M185.236,106.186h5.232v2.317h-5.232v8.445h-2.73v-8.445h-15.354v-1.561l15.078-23.408h3.006V106.186z M170.411,106.186
		h12.095V87.137l-0.139-0.046l-1.17,2.502L170.411,106.186z"/>
</g>
<g>
	<path d="M30.797,116.707H10.464v-2.111l10.993-12.828c1.958-2.311,3.312-4.203,4.062-5.681c0.75-1.476,1.125-2.933,1.125-4.371
		c0-2.035-0.547-3.638-1.641-4.809c-1.094-1.17-2.712-1.755-4.854-1.755c-2.387,0-4.223,0.708-5.508,2.122
		c-1.285,1.416-1.928,3.225-1.928,5.428h-2.57l-0.046-0.138c-0.077-2.723,0.803-5.029,2.639-6.919s4.307-2.834,7.413-2.834
		c2.861,0,5.118,0.803,6.77,2.409s2.479,3.779,2.479,6.518c0,1.806-0.543,3.611-1.629,5.416c-1.086,1.806-2.685,3.993-4.796,6.563
		l-9.042,10.557l0.046,0.115h16.822V116.707z"/>
	<path d="M56.408,104.911c0,3.81-0.922,6.809-2.766,8.996s-4.371,3.281-7.584,3.281s-5.753-1.098-7.619-3.293
		c-1.867-2.195-2.801-5.189-2.801-8.984v-9.822c0-3.778,0.926-6.77,2.777-8.973c1.851-2.203,4.383-3.305,7.596-3.305
		s5.749,1.102,7.608,3.305c1.858,2.203,2.788,5.194,2.788,8.973V104.911z M53.654,94.653c0-2.922-0.662-5.236-1.985-6.942
		s-3.209-2.559-5.657-2.559c-2.447,0-4.333,0.856-5.656,2.57c-1.324,1.714-1.985,4.023-1.985,6.931v10.671
		c0,2.892,0.669,5.206,2.008,6.942s3.232,2.604,5.681,2.604c2.432,0,4.306-0.864,5.622-2.593c1.315-1.729,1.974-4.047,1.974-6.954
		V94.653z"/>
</g>
</svg>
