<svg xmlns="http://www.w3.org/2000/svg" width="95.208" height="95.084" viewBox="0 0 95.208 95.084"><path fill="#fff" d="M47.606.325C21.53.325.39 21.465.39 47.542S21.53 94.76 47.605 94.76 94.823 73.62 94.823 47.54 73.683.325 47.606.325zm-6.748 62.18l-8.156-20.033-8.157 20.034-5.557-2.262L32.703 26.56l13.713 33.685-5.558 2.26zm29.818-10.7c.004.413-.07 4.274-3.37 7.595-2.94 2.96-7.384 4.46-13.2 4.46v-6c4.104 0 7.195-.932 8.943-2.69 1.54-1.55 1.626-3.328 1.626-3.345V36.71H54.82v-6h15.856v21.096z"/></svg>