<?xml version="1.0" encoding="utf-8"?>
<!-- Generator: Adobe Illustrator 16.0.0, SVG Export Plug-In . SVG Version: 6.00 Build 0)  -->
<!DOCTYPE svg PUBLIC "-//W3C//DTD SVG 1.1//EN" "http://www.w3.org/Graphics/SVG/1.1/DTD/svg11.dtd">
<svg version="1.1" id="Layer_1" xmlns="http://www.w3.org/2000/svg" xmlns:xlink="http://www.w3.org/1999/xlink" x="0px" y="0px"
	 width="500px" height="136.341px" viewBox="0 0 500 136.341" enable-background="new 0 0 500 136.341" xml:space="preserve">
<g>
	<g>
		<path d="M90.182,131.83L18.21,7.17h143.944L90.182,131.83z M20.635,9.17l69.547,120.461L159.729,9.17H20.635z"/>
	</g>
	<g>
		<g>
			<path d="M217.057,132.481c-35.463,0-64.314-28.851-64.314-64.312c0-35.461,28.852-64.311,64.314-64.311
				c35.462,0,64.312,28.85,64.312,64.311C281.369,103.631,252.52,132.481,217.057,132.481z M217.057,5.383
				c-34.623,0-62.79,28.166-62.79,62.787c0,34.621,28.167,62.787,62.79,62.787c34.621,0,62.789-28.166,62.789-62.787
				C279.846,33.549,251.678,5.383,217.057,5.383z"/>
		</g>
		<g>
			<path d="M217.057,126.051c-31.917,0-57.883-25.965-57.883-57.881c0-31.916,25.966-57.881,57.883-57.881
				s57.882,25.965,57.882,57.881C274.939,100.086,248.974,126.051,217.057,126.051z M217.057,11.661
				c-31.16,0-56.511,25.35-56.511,56.509c0,31.158,25.351,56.509,56.511,56.509c31.16,0,56.509-25.351,56.509-56.509
				C273.566,37.011,248.217,11.661,217.057,11.661z"/>
		</g>
		<g>
			<path d="M217.057,120.262c-28.725,0-52.095-23.368-52.095-52.092c0-28.724,23.37-52.093,52.095-52.093
				c28.725,0,52.093,23.369,52.093,52.093C269.15,96.894,245.782,120.262,217.057,120.262z M217.057,17.312
				c-28.044,0-50.861,22.815-50.861,50.858s22.816,50.857,50.861,50.857c28.044,0,50.859-22.814,50.859-50.857
				S245.101,17.312,217.057,17.312z"/>
		</g>
		<g>
			<path d="M217.057,115.053c-25.853,0-46.886-21.031-46.886-46.883s21.033-46.884,46.886-46.884
				c25.852,0,46.884,21.032,46.884,46.884S242.909,115.053,217.057,115.053z M217.057,22.398c-25.24,0-45.774,20.533-45.774,45.772
				c0,25.238,20.534,45.771,45.774,45.771s45.772-20.533,45.772-45.771C262.829,42.931,242.297,22.398,217.057,22.398z"/>
		</g>
		<g>
			<path d="M217.057,110.364c-23.267,0-42.197-18.929-42.197-42.194c0-23.266,18.93-42.195,42.197-42.195
				s42.195,18.929,42.195,42.195C259.252,91.436,240.324,110.364,217.057,110.364z M217.057,26.975
				c-22.716,0-41.197,18.479-41.197,41.195c0,22.715,18.481,41.193,41.197,41.193s41.195-18.479,41.195-41.193
				C258.252,45.455,239.773,26.975,217.057,26.975z"/>
		</g>
		<g>
			<path d="M217.057,106.145c-20.941,0-37.978-17.035-37.978-37.975c0-20.94,17.036-37.976,37.978-37.976
				c20.94,0,37.975,17.036,37.975,37.976C255.032,89.109,237.997,106.145,217.057,106.145z M217.057,31.094
				c-20.445,0-37.078,16.632-37.078,37.076c0,20.443,16.633,37.076,37.078,37.076c20.443,0,37.076-16.633,37.076-37.076
				C254.133,47.726,237.5,31.094,217.057,31.094z"/>
		</g>
		<g>
			<path d="M217.057,102.348c-18.847,0-34.18-15.332-34.18-34.178c0-18.846,15.333-34.178,34.18-34.178
				c18.845,0,34.178,15.332,34.178,34.178C251.235,87.016,235.902,102.348,217.057,102.348z M217.057,34.802
				c-18.399,0-33.37,14.968-33.37,33.368c0,18.398,14.97,33.366,33.37,33.366s33.368-14.968,33.368-33.366
				C250.425,49.77,235.457,34.802,217.057,34.802z"/>
		</g>
		<g>
			<path d="M217.057,98.93c-16.961,0-30.761-13.8-30.761-30.76c0-16.961,13.8-30.761,30.761-30.761s30.76,13.8,30.76,30.761
				C247.817,85.13,234.019,98.93,217.057,98.93z M217.057,38.138c-16.56,0-30.032,13.472-30.032,30.032
				c0,16.559,13.472,30.03,30.032,30.03s30.032-13.472,30.032-30.03C247.089,51.61,233.617,38.138,217.057,38.138z"/>
		</g>
		<g>
			<path d="M217.057,95.854c-15.266,0-27.686-12.419-27.686-27.684c0-15.266,12.419-27.685,27.686-27.685
				s27.684,12.419,27.684,27.685C244.741,83.435,232.323,95.854,217.057,95.854z M217.057,41.141
				c-14.904,0-27.029,12.125-27.029,27.029c0,14.902,12.125,27.027,27.029,27.027s27.028-12.125,27.028-27.027
				C244.085,53.266,231.961,41.141,217.057,41.141z"/>
		</g>
		<g>
			<path d="M217.057,93.084c-13.739,0-24.917-11.176-24.917-24.914c0-13.739,11.178-24.917,24.917-24.917
				s24.916,11.178,24.916,24.917C241.973,81.908,230.796,93.084,217.057,93.084z M217.057,43.844
				c-13.414,0-24.326,10.913-24.326,24.326c0,13.412,10.913,24.324,24.326,24.324s24.325-10.912,24.325-24.324
				C241.382,54.757,230.471,43.844,217.057,43.844z"/>
		</g>
		<g>
			<path d="M217.057,90.594c-12.365,0-22.425-10.061-22.425-22.424c0-12.365,10.06-22.425,22.425-22.425s22.425,10.06,22.425,22.425
				C239.482,80.533,229.422,90.594,217.057,90.594z M217.057,46.277c-12.072,0-21.893,9.821-21.893,21.893
				c0,12.071,9.82,21.892,21.893,21.892s21.893-9.82,21.893-21.892C238.95,56.098,229.129,46.277,217.057,46.277z"/>
		</g>
		<g>
			<path d="M217.057,88.352c-11.129,0-20.183-9.054-20.183-20.182c0-11.129,9.054-20.183,20.183-20.183s20.181,9.054,20.181,20.183
				C237.238,79.298,228.186,88.352,217.057,88.352z M217.057,48.466c-10.865,0-19.704,8.839-19.704,19.704
				c0,10.863,8.839,19.703,19.704,19.703s19.703-8.84,19.703-19.703C236.76,57.305,227.922,48.466,217.057,48.466z"/>
		</g>
		<g>
			<path d="M217.057,86.332c-10.016,0-18.165-8.147-18.165-18.162c0-10.016,8.148-18.165,18.165-18.165s18.163,8.148,18.163,18.165
				C235.22,78.185,227.073,86.332,217.057,86.332z M217.057,50.436c-9.778,0-17.734,7.956-17.734,17.734
				c0,9.777,7.956,17.731,17.734,17.731s17.732-7.954,17.732-17.731C234.79,58.392,226.835,50.436,217.057,50.436z"/>
		</g>
		<g>
			<path d="M217.057,84.516c-9.014,0-16.348-7.333-16.348-16.346c0-9.014,7.334-16.348,16.348-16.348s16.348,7.334,16.348,16.348
				C233.405,77.183,226.071,84.516,217.057,84.516z M217.057,52.209c-8.801,0-15.96,7.16-15.96,15.96
				c0,8.799,7.16,15.959,15.96,15.959s15.96-7.16,15.96-15.959C233.018,59.369,225.858,52.209,217.057,52.209z"/>
		</g>
		<g>
			<path d="M217.057,82.881c-8.113,0-14.714-6.6-14.714-14.711c0-8.113,6.601-14.714,14.714-14.714s14.712,6.601,14.712,14.714
				C231.77,76.281,225.17,82.881,217.057,82.881z M217.057,53.805c-7.92,0-14.365,6.444-14.365,14.365
				c0,7.919,6.445,14.362,14.365,14.362s14.364-6.443,14.364-14.362C231.421,60.249,224.977,53.805,217.057,53.805z"/>
		</g>
		<g>
			<path d="M217.057,81.411c-7.301,0-13.241-5.94-13.241-13.241c0-7.302,5.94-13.242,13.241-13.242
				c7.302,0,13.241,5.94,13.241,13.242C230.298,75.471,224.359,81.411,217.057,81.411z M217.057,55.242
				c-7.128,0-12.928,5.8-12.928,12.928c0,7.127,5.8,12.927,12.928,12.927s12.928-5.8,12.928-12.927
				C229.985,61.042,224.186,55.242,217.057,55.242z"/>
		</g>
		<g>
			<path d="M217.057,80.086c-6.571,0-11.918-5.346-11.918-11.916c0-6.572,5.347-11.918,11.918-11.918
				c6.572,0,11.918,5.346,11.918,11.918C228.975,74.74,223.629,80.086,217.057,80.086z M217.057,56.534
				c-6.415,0-11.635,5.22-11.635,11.636c0,6.415,5.22,11.634,11.635,11.634c6.416,0,11.635-5.219,11.635-11.634
				C228.692,61.753,223.473,56.534,217.057,56.534z"/>
		</g>
		<g>
			<path d="M217.057,78.895c-5.915,0-10.727-4.812-10.727-10.725c0-5.915,4.812-10.727,10.727-10.727s10.726,4.812,10.726,10.727
				C227.783,74.083,222.972,78.895,217.057,78.895z M217.057,57.698c-5.773,0-10.473,4.698-10.473,10.472
				c0,5.772,4.699,10.471,10.473,10.471s10.471-4.698,10.471-10.471C227.528,62.396,222.831,57.698,217.057,57.698z"/>
		</g>
		<g>
			<path d="M217.057,77.821c-5.322,0-9.652-4.33-9.652-9.651c0-5.323,4.33-9.654,9.652-9.654s9.652,4.331,9.652,9.654
				C226.709,73.491,222.379,77.821,217.057,77.821z M217.057,58.745c-5.197,0-9.424,4.228-9.424,9.425
				c0,5.195,4.227,9.423,9.424,9.423s9.424-4.228,9.424-9.423C226.481,62.973,222.254,58.745,217.057,58.745z"/>
		</g>
		<g>
			<path d="M217.057,76.855c-4.791,0-8.687-3.896-8.687-8.686c0-4.791,3.896-8.688,8.687-8.688s8.687,3.898,8.687,8.688
				C225.744,72.959,221.848,76.855,217.057,76.855z M217.057,59.687c-4.677,0-8.482,3.806-8.482,8.483
				c0,4.676,3.805,8.479,8.482,8.479s8.482-3.804,8.482-8.479C225.539,63.493,221.734,59.687,217.057,59.687z"/>
		</g>
		<g>
			<path d="M217.057,75.988c-4.311,0-7.819-3.508-7.819-7.818c0-4.312,3.508-7.82,7.819-7.82c4.312,0,7.819,3.508,7.819,7.82
				C224.876,72.48,221.369,75.988,217.057,75.988z M217.057,60.536c-4.209,0-7.633,3.425-7.633,7.634
				c0,4.209,3.423,7.632,7.633,7.632s7.634-3.423,7.634-7.632C224.691,63.96,221.267,60.536,217.057,60.536z"/>
		</g>
		<g>
			<path d="M217.057,75.205c-3.88,0-7.037-3.156-7.037-7.035c0-3.881,3.157-7.039,7.037-7.039s7.037,3.158,7.037,7.039
				C224.094,72.049,220.937,75.205,217.057,75.205z M217.057,61.298c-3.789,0-6.87,3.083-6.87,6.872c0,3.787,3.082,6.869,6.87,6.869
				s6.87-3.082,6.87-6.869C223.927,64.381,220.846,61.298,217.057,61.298z"/>
		</g>
		<g>
			<path d="M217.057,74.502c-3.492,0-6.334-2.84-6.334-6.332c0-3.493,2.842-6.335,6.334-6.335s6.333,2.842,6.333,6.335
				C223.39,71.662,220.549,74.502,217.057,74.502z M217.057,61.985c-3.41,0-6.184,2.775-6.184,6.185
				c0,3.408,2.774,6.182,6.184,6.182s6.183-2.773,6.183-6.182C223.24,64.76,220.467,61.985,217.057,61.985z"/>
		</g>
		<g>
			<path d="M217.057,73.869c-3.143,0-5.7-2.557-5.7-5.699c0-3.144,2.557-5.701,5.7-5.701s5.7,2.557,5.7,5.701
				C222.757,71.312,220.2,73.869,217.057,73.869z M217.057,62.604c-3.068,0-5.564,2.497-5.564,5.566
				c0,3.068,2.497,5.563,5.564,5.563c3.069,0,5.564-2.495,5.564-5.563C222.622,65.101,220.126,62.604,217.057,62.604z"/>
		</g>
		<g>
			<path d="M217.057,73.299c-2.829,0-5.13-2.301-5.13-5.129c0-2.83,2.301-5.132,5.13-5.132s5.131,2.302,5.131,5.132
				C222.188,70.998,219.886,73.299,217.057,73.299z M217.057,63.16c-2.762,0-5.008,2.248-5.008,5.01
				c0,2.761,2.246,5.007,5.008,5.007s5.009-2.246,5.009-5.007C222.066,65.407,219.819,63.16,217.057,63.16z"/>
		</g>
		<g>
			<path d="M217.057,72.785c-2.546,0-4.617-2.07-4.617-4.615c0-2.546,2.071-4.619,4.617-4.619s4.617,2.072,4.617,4.619
				C221.674,70.715,219.603,72.785,217.057,72.785z M217.057,63.661c-2.485,0-4.508,2.023-4.508,4.509
				c0,2.484,2.022,4.506,4.508,4.506s4.508-2.021,4.508-4.506C221.565,65.684,219.542,63.661,217.057,63.661z"/>
		</g>
		<g>
			<path d="M217.057,72.324c-2.292,0-4.155-1.864-4.155-4.154c0-2.292,1.863-4.156,4.155-4.156s4.155,1.864,4.155,4.156
				C221.212,70.46,219.349,72.324,217.057,72.324z M217.057,64.112c-2.237,0-4.057,1.821-4.057,4.058
				c0,2.235,1.82,4.055,4.057,4.055s4.057-1.819,4.057-4.055C221.114,65.933,219.294,64.112,217.057,64.112z"/>
		</g>
		<g>
			<path d="M217.057,71.908c-2.062,0-3.739-1.676-3.739-3.738s1.678-3.741,3.739-3.741c2.063,0,3.741,1.679,3.741,3.741
				S219.12,71.908,217.057,71.908z M217.057,64.518c-2.013,0-3.65,1.638-3.65,3.652c0,2.013,1.638,3.649,3.65,3.649
				c2.014,0,3.652-1.637,3.652-3.649C220.709,66.156,219.071,64.518,217.057,64.518z"/>
		</g>
		<g>
			<path d="M217.057,71.535c-1.855,0-3.366-1.51-3.366-3.365c0-1.857,1.511-3.368,3.366-3.368c1.856,0,3.366,1.511,3.366,3.368
				C220.423,70.025,218.914,71.535,217.057,71.535z M217.057,64.882c-1.812,0-3.285,1.475-3.285,3.288
				c0,1.812,1.474,3.285,3.285,3.285c1.813,0,3.287-1.474,3.287-3.285C220.344,66.357,218.87,64.882,217.057,64.882z"/>
		</g>
		<g>
			<path d="M217.057,71.198c-1.671,0-3.03-1.358-3.03-3.028c0-1.671,1.359-3.03,3.03-3.03s3.03,1.359,3.03,3.03
				C220.087,69.84,218.728,71.198,217.057,71.198z M217.057,65.211c-1.631,0-2.957,1.327-2.957,2.958
				c0,1.63,1.326,2.956,2.957,2.956s2.957-1.326,2.957-2.956C220.014,66.539,218.688,65.211,217.057,65.211z"/>
		</g>
		<g>
			<path d="M217.057,70.895c-1.502,0-2.726-1.222-2.726-2.725c0-1.504,1.224-2.728,2.726-2.728c1.504,0,2.726,1.224,2.726,2.728
				C219.783,69.673,218.561,70.895,217.057,70.895z M217.057,65.507c-1.467,0-2.662,1.194-2.662,2.663
				c0,1.467,1.195,2.66,2.662,2.66c1.468,0,2.662-1.193,2.662-2.66C219.719,66.702,218.525,65.507,217.057,65.507z"/>
		</g>
	</g>
	<g>
		<path d="M340,132.17h-41v-126h41V132.17z M300,130.17h38v-122h-38V130.17z"/>
	</g>
	<g>
		<path d="M420.631,132.17H369v-126h51.627c0.637,0,15.676,0.192,30.765,7.773c13.868,6.967,30.397,21.93,30.397,53.399
			c0,33.148-16.527,49.128-30.393,56.47C436.303,131.807,421.264,132.17,420.631,132.17z M370,130.17h50.631
			c0.619,0,15.32-0.036,30.111-7.869c19.672-10.416,29.647-28.88,29.647-54.934c0-24.692-9.968-42.011-29.627-51.887
			C435.967,8.046,421.25,8.17,420.631,8.17H370V130.17z"/>
	</g>
</g>
<g>
	<g>
		<path d="M80.578,136.184L4.36,4.17h152.435L80.578,136.184z M6.785,5.17l73.792,127.814L154.37,5.17H6.785z"/>
	</g>
	<g>
		<g>
			<path d="M215.064,136.341c-37.59,0-68.173-30.581-68.173-68.171c0-37.589,30.583-68.17,68.173-68.17
				c37.591,0,68.172,30.581,68.172,68.17C283.236,105.76,252.655,136.341,215.064,136.341z M215.064,1.616
				c-36.699,0-66.557,29.856-66.557,66.554s29.857,66.555,66.557,66.555s66.557-29.856,66.557-66.555S251.764,1.616,215.064,1.616z"
				/>
		</g>
		<g>
			<path d="M215.064,129.523c-33.832,0-61.356-27.522-61.356-61.354c0-33.831,27.524-61.354,61.356-61.354
				c33.831,0,61.355,27.523,61.355,61.354C276.42,102.001,248.896,129.523,215.064,129.523z M215.064,8.271
				c-33.03,0-59.901,26.871-59.901,59.899c0,33.029,26.872,59.899,59.901,59.899s59.9-26.87,59.9-59.899
				C274.965,35.141,248.094,8.271,215.064,8.271z"/>
		</g>
		<g>
			<path d="M215.064,123.387c-30.449,0-55.221-24.77-55.221-55.217s24.772-55.218,55.221-55.218s55.219,24.771,55.219,55.218
				S245.513,123.387,215.064,123.387z M215.064,14.261c-29.727,0-53.912,24.184-53.912,53.909s24.185,53.908,53.912,53.908
				s53.911-24.183,53.911-53.908S244.791,14.261,215.064,14.261z"/>
		</g>
		<g>
			<path d="M215.064,117.866c-27.403,0-49.698-22.294-49.698-49.696c0-27.403,22.294-49.696,49.698-49.696
				c27.402,0,49.697,22.293,49.697,49.696C264.762,95.572,242.467,117.866,215.064,117.866z M215.064,19.652
				c-26.754,0-48.52,21.765-48.52,48.518c0,26.754,21.766,48.518,48.52,48.518c26.753,0,48.519-21.764,48.519-48.518
				C263.583,41.417,241.817,19.652,215.064,19.652z"/>
		</g>
		<g>
			<path d="M215.064,112.896c-24.663,0-44.728-20.063-44.728-44.727c0-24.663,20.065-44.727,44.728-44.727
				s44.728,20.064,44.728,44.727C259.792,92.833,239.727,112.896,215.064,112.896z M215.064,24.503
				c-24.078,0-43.668,19.589-43.668,43.667c0,24.078,19.59,43.667,43.668,43.667c24.078,0,43.668-19.589,43.668-43.667
				C258.732,44.092,239.142,24.503,215.064,24.503z"/>
		</g>
		<g>
			<path d="M215.064,108.424c-22.198,0-40.256-18.058-40.256-40.254s18.059-40.255,40.256-40.255
				c22.196,0,40.254,18.059,40.254,40.255S237.261,108.424,215.064,108.424z M215.064,28.869c-21.671,0-39.302,17.631-39.302,39.301
				s17.63,39.3,39.302,39.3c21.67,0,39.3-17.63,39.3-39.3S236.734,28.869,215.064,28.869z"/>
		</g>
		<g>
			<path d="M215.064,104.398c-19.978,0-36.23-16.252-36.23-36.229s16.252-36.229,36.23-36.229c19.976,0,36.229,16.252,36.229,36.229
				S235.041,104.398,215.064,104.398z M215.064,32.799c-19.504,0-35.371,15.868-35.371,35.371s15.867,35.369,35.371,35.369
				c19.503,0,35.371-15.866,35.371-35.369S234.567,32.799,215.064,32.799z"/>
		</g>
		<g>
			<path d="M215.064,100.775c-17.98,0-32.607-14.627-32.607-32.605c0-17.979,14.627-32.606,32.607-32.606
				c17.979,0,32.606,14.626,32.606,32.606C247.67,86.148,233.043,100.775,215.064,100.775z M215.064,36.337
				c-17.553,0-31.833,14.28-31.833,31.833s14.28,31.832,31.833,31.832s31.832-14.279,31.832-31.832S232.618,36.337,215.064,36.337z"
				/>
		</g>
		<g>
			<path d="M215.064,97.514c-16.182,0-29.346-13.163-29.346-29.344c0-16.182,13.164-29.346,29.346-29.346
				c16.181,0,29.345,13.165,29.345,29.346C244.41,84.351,231.245,97.514,215.064,97.514z M215.064,39.52
				c-15.798,0-28.65,12.853-28.65,28.65c0,15.797,12.852,28.648,28.65,28.648s28.649-12.852,28.649-28.648
				C243.714,52.372,230.862,39.52,215.064,39.52z"/>
		</g>
		<g>
			<path d="M215.064,94.58c-14.563,0-26.411-11.848-26.411-26.41c0-14.563,11.848-26.412,26.411-26.412s26.411,11.848,26.411,26.412
				C241.476,82.732,229.628,94.58,215.064,94.58z M215.064,42.385c-14.219,0-25.785,11.567-25.785,25.785
				c0,14.218,11.566,25.784,25.785,25.784c14.217,0,25.785-11.566,25.785-25.784C240.85,53.952,229.282,42.385,215.064,42.385z"/>
		</g>
		<g>
			<path d="M215.064,91.938c-13.107,0-23.77-10.663-23.77-23.769c0-13.106,10.663-23.77,23.77-23.77s23.77,10.664,23.77,23.77
				C238.834,81.275,228.172,91.938,215.064,91.938z M215.064,44.963c-12.797,0-23.207,10.41-23.207,23.207
				c0,12.796,10.41,23.205,23.207,23.205c12.795,0,23.207-10.409,23.207-23.205C238.271,55.374,227.86,44.963,215.064,44.963z"/>
		</g>
		<g>
			<path d="M215.064,89.561c-11.796,0-21.394-9.596-21.394-21.391c0-11.796,9.598-21.394,21.394-21.394s21.393,9.598,21.393,21.394
				C236.457,79.965,226.86,89.561,215.064,89.561z M215.064,47.283c-11.517,0-20.887,9.37-20.887,20.887
				c0,11.516,9.37,20.884,20.887,20.884c11.516,0,20.885-9.368,20.885-20.884C235.95,56.653,226.58,47.283,215.064,47.283z"/>
		</g>
		<g>
			<path d="M215.064,87.423c-10.616,0-19.254-8.637-19.254-19.253s8.638-19.254,19.254-19.254s19.254,8.638,19.254,19.254
				S225.681,87.423,215.064,87.423z M215.064,49.373c-10.365,0-18.797,8.433-18.797,18.797c0,10.365,8.433,18.797,18.797,18.797
				s18.797-8.432,18.797-18.797C233.862,57.805,225.429,49.373,215.064,49.373z"/>
		</g>
		<g>
			<path d="M215.064,85.498c-9.555,0-17.329-7.773-17.329-17.328s7.774-17.329,17.329-17.329s17.328,7.774,17.328,17.329
				S224.62,85.498,215.064,85.498z M215.064,51.252c-9.328,0-16.919,7.589-16.919,16.917c0,9.328,7.591,16.918,16.919,16.918
				s16.917-7.59,16.917-16.918C231.982,58.841,224.393,51.252,215.064,51.252z"/>
		</g>
		<g>
			<path d="M215.064,83.764c-8.6,0-15.597-6.995-15.597-15.594c0-8.6,6.997-15.596,15.597-15.596S230.66,59.57,230.66,68.17
				C230.66,76.769,223.664,83.764,215.064,83.764z M215.064,52.943c-8.396,0-15.227,6.831-15.227,15.227
				c0,8.395,6.831,15.225,15.227,15.225s15.225-6.83,15.225-15.225C230.29,59.774,223.46,52.943,215.064,52.943z"/>
		</g>
		<g>
			<path d="M215.064,82.204c-7.74,0-14.037-6.296-14.037-14.034c0-7.74,6.297-14.037,14.037-14.037S229.1,60.43,229.1,68.17
				C229.1,75.908,222.804,82.204,215.064,82.204z M215.064,54.466c-7.557,0-13.703,6.147-13.703,13.704
				c0,7.555,6.146,13.702,13.703,13.702s13.703-6.147,13.703-13.702C228.768,60.613,222.621,54.466,215.064,54.466z"/>
		</g>
		<g>
			<path d="M215.064,80.801c-6.966,0-12.633-5.666-12.633-12.631c0-6.966,5.667-12.634,12.633-12.634s12.633,5.668,12.633,12.634
				C227.697,75.135,222.03,80.801,215.064,80.801z M215.064,55.836c-6.8,0-12.333,5.533-12.333,12.334
				c0,6.799,5.533,12.331,12.333,12.331s12.333-5.532,12.333-12.331C227.398,61.369,221.865,55.836,215.064,55.836z"/>
		</g>
		<g>
			<path d="M215.064,79.538c-6.27,0-11.37-5.1-11.37-11.368c0-6.27,5.1-11.37,11.37-11.37c6.269,0,11.37,5.101,11.37,11.37
				C226.434,74.438,221.333,79.538,215.064,79.538z M215.064,57.069c-6.121,0-11.1,4.98-11.1,11.101c0,6.119,4.979,11.1,11.1,11.1
				s11.1-4.98,11.1-11.1C226.165,62.049,221.186,57.069,215.064,57.069z"/>
		</g>
		<g>
			<path d="M215.064,78.4c-5.643,0-10.232-4.59-10.232-10.23c0-5.643,4.589-10.233,10.232-10.233c5.641,0,10.23,4.59,10.23,10.233
				C225.295,73.811,220.706,78.4,215.064,78.4z M215.064,58.18c-5.508,0-9.99,4.482-9.99,9.99c0,5.509,4.482,9.988,9.99,9.988
				s9.989-4.479,9.989-9.988C225.053,62.662,220.573,58.18,215.064,58.18z"/>
		</g>
		<g>
			<path d="M215.064,77.378c-5.078,0-9.209-4.132-9.209-9.208c0-5.079,4.132-9.209,9.209-9.209s9.208,4.131,9.208,9.209
				C224.272,73.246,220.142,77.378,215.064,77.378z M215.064,59.179c-4.958,0-8.991,4.033-8.991,8.991
				c0,4.956,4.033,8.989,8.991,8.989s8.991-4.033,8.991-8.989C224.055,63.212,220.022,59.179,215.064,59.179z"/>
		</g>
		<g>
			<path d="M215.064,76.457c-4.57,0-8.288-3.718-8.288-8.287c0-4.571,3.718-8.289,8.288-8.289s8.288,3.718,8.288,8.289
				C223.353,72.739,219.635,76.457,215.064,76.457z M215.064,60.078c-4.461,0-8.092,3.63-8.092,8.092c0,4.461,3.631,8.09,8.092,8.09
				s8.091-3.629,8.091-8.09C223.155,63.708,219.525,60.078,215.064,60.078z"/>
		</g>
		<g>
			<path d="M215.064,75.627c-4.112,0-7.459-3.344-7.459-7.457c0-4.114,3.347-7.461,7.459-7.461c4.114,0,7.459,3.347,7.459,7.461
				C222.524,72.283,219.178,75.627,215.064,75.627z M215.064,60.886c-4.016,0-7.283,3.268-7.283,7.284
				c0,4.014,3.268,7.28,7.283,7.28s7.283-3.267,7.283-7.28C222.348,64.154,219.08,60.886,215.064,60.886z"/>
		</g>
		<g>
			<path d="M215.064,74.882c-3.702,0-6.714-3.011-6.714-6.712c0-3.703,3.012-6.714,6.714-6.714s6.713,3.012,6.713,6.714
				C221.777,71.871,218.767,74.882,215.064,74.882z M215.064,61.615c-3.613,0-6.554,2.941-6.554,6.555
				c0,3.613,2.941,6.553,6.554,6.553s6.554-2.939,6.554-6.553C221.619,64.556,218.678,61.615,215.064,61.615z"/>
		</g>
		<g>
			<path d="M215.064,74.211c-3.332,0-6.042-2.711-6.042-6.041c0-3.333,2.709-6.044,6.042-6.044s6.043,2.711,6.043,6.044
				C221.107,71.5,218.396,74.211,215.064,74.211z M215.064,62.27c-3.252,0-5.898,2.647-5.898,5.9c0,3.252,2.646,5.896,5.898,5.896
				s5.899-2.645,5.899-5.896C220.964,64.917,218.317,62.27,215.064,62.27z"/>
		</g>
		<g>
			<path d="M215.064,73.607c-2.998,0-5.438-2.439-5.438-5.438c0-2.999,2.44-5.439,5.438-5.439s5.438,2.44,5.438,5.439
				C220.503,71.168,218.062,73.607,215.064,73.607z M215.064,62.86c-2.927,0-5.309,2.382-5.309,5.31s2.381,5.309,5.309,5.309
				s5.309-2.381,5.309-5.309S217.992,62.86,215.064,62.86z"/>
		</g>
		<g>
			<path d="M215.064,73.063c-2.699,0-4.895-2.194-4.895-4.894c0-2.7,2.196-4.896,4.895-4.896s4.895,2.196,4.895,4.896
				C219.959,70.869,217.763,73.063,215.064,73.063z M215.064,63.39c-2.635,0-4.778,2.145-4.778,4.78
				c0,2.635,2.144,4.777,4.778,4.777s4.778-2.143,4.778-4.777C219.843,65.535,217.699,63.39,215.064,63.39z"/>
		</g>
		<g>
			<path d="M215.064,72.574c-2.428,0-4.405-1.977-4.405-4.404c0-2.43,1.977-4.406,4.405-4.406c2.43,0,4.405,1.976,4.405,4.406
				C219.47,70.598,217.494,72.574,215.064,72.574z M215.064,63.869c-2.371,0-4.3,1.929-4.3,4.301c0,2.371,1.929,4.3,4.3,4.3
				s4.3-1.929,4.3-4.3C219.364,65.798,217.435,63.869,215.064,63.869z"/>
		</g>
		<g>
			<path d="M215.064,72.133c-2.186,0-3.963-1.777-3.963-3.963c0-2.187,1.777-3.966,3.963-3.966s3.965,1.779,3.965,3.966
				C219.029,70.355,217.25,72.133,215.064,72.133z M215.064,64.298c-2.134,0-3.871,1.737-3.871,3.872
				c0,2.133,1.736,3.868,3.871,3.868s3.871-1.735,3.871-3.868C218.935,66.035,217.199,64.298,215.064,64.298z"/>
		</g>
		<g>
			<path d="M215.064,71.737c-1.967,0-3.568-1.601-3.568-3.567c0-1.968,1.601-3.57,3.568-3.57s3.568,1.602,3.568,3.57
				C218.633,70.137,217.032,71.737,215.064,71.737z M215.064,64.685c-1.921,0-3.483,1.563-3.483,3.485
				c0,1.92,1.562,3.482,3.483,3.482s3.483-1.562,3.483-3.482C218.548,66.248,216.985,64.685,215.064,64.685z"/>
		</g>
		<g>
			<path d="M215.064,71.381c-1.771,0-3.211-1.441-3.211-3.211c0-1.771,1.441-3.212,3.211-3.212s3.21,1.441,3.21,3.212
				C218.274,69.939,216.835,71.381,215.064,71.381z M215.064,65.034c-1.728,0-3.135,1.407-3.135,3.136
				c0,1.729,1.407,3.134,3.135,3.134s3.135-1.405,3.135-3.134C218.199,66.44,216.792,65.034,215.064,65.034z"/>
		</g>
		<g>
			<path d="M215.064,71.059c-1.594,0-2.89-1.296-2.89-2.889c0-1.594,1.296-2.892,2.89-2.892s2.89,1.297,2.89,2.892
				C217.955,69.763,216.659,71.059,215.064,71.059z M215.064,65.347c-1.556,0-2.822,1.267-2.822,2.823
				c0,1.555,1.266,2.82,2.822,2.82s2.822-1.266,2.822-2.82C217.886,66.613,216.62,65.347,215.064,65.347z"/>
		</g>
	</g>
	<g>
		<path d="M345,135.17h-43v-132h43V135.17z M303,134.17h41v-130h-41V134.17z"/>
	</g>
	<g>
		<path d="M430.872,135.17H376v-132h54.85c0.707,0,16.932-0.053,32.913,8.03c14.542,7.355,31.878,23.01,31.878,56.169
			c0,19.285-5.533,45.178-31.889,59.223C447.764,135.111,431.555,135.17,430.872,135.17z M377,134.17h53.872
			c0.667,0,16.538-0.293,32.221-8.65c20.668-11.013,31.147-30.634,31.147-58.125c0-26.05-10.467-44.655-31.11-55.096
			c-15.687-7.934-31.587-8.128-32.255-8.128H377V134.17z"/>
	</g>
</g>
</svg>
