<svg xmlns="http://www.w3.org/2000/svg" style="display: none;">

	<!-- BACK -->

	<svg id="back" viewBox="0 0 24 24" xmlns="http://www.w3.org/2000/svg"><path d="M0 0h24v24H0z" fill="none"/><path d="M20 11H7.83l5.59-5.59L12 4l-8 8 8 8 1.41-1.41L7.83 13H20v-2z"/></svg>

	<!-- CLOSE -->
	<symbol id="close" viewBox="0 0 24 24" xmlns="http://www.w3.org/2000/svg"><path d="M19 6.41L17.59 5 12 10.59 6.41 5 5 6.41 10.59 12 5 17.59 6.41 19 12 13.41 17.59 19 19 17.59 13.41 12z"/><path d="M0 0h24v24H0z" fill="none"/></symbol>

	<!-- MAIL -->
	<symbol id="mail" viewBox="0 0 24 24" xmlns="http://www.w3.org/2000/svg"><path d="M20 4H4c-1.1 0-1.99.9-1.99 2L2 18c0 1.1.9 2 2 2h16c1.1 0 2-.9 2-2V6c0-1.1-.9-2-2-2zm0 4l-8 5-8-5V6l8 5 8-5v2z"/><path d="M0 0h24v24H0z" fill="none"/></symbol>

	<!-- BEHANCE -->
	<symbol id="behance" xmlns="http://www.w3.org/2000/svg" version="1.1" x="0" y="0" viewBox="0 81.2 430.1 267.6" enable-background="new 0 81.247 430.123 267.63" xml:space="preserve"><path d="M388.4 119.1H280.7V92.4h107.8v26.8H388.4zM208.9 228.9c7 10.8 10.4 23.8 10.4 39.2 0 15.9-3.9 30.1-11.9 42.7 -5.1 8.3-11.4 15.4-18.9 21 -8.5 6.5-18.6 11-30.2 13.4 -11.6 2.4-24.2 3.6-37.8 3.6H0V81.2h129.3c32.6 0.5 55.7 10 69.3 28.5 8.2 11.4 12.2 25 12.2 40.9 0 16.4-4.1 29.5-12.4 39.4 -4.6 5.6-11.4 10.7-20.4 15.2C191.7 210.2 202 218.1 208.9 228.9zM61.7 186.8h56.6c11.6 0 21-2.2 28.3-6.6 7.2-4.4 10.9-12.3 10.9-23.5 0-12.4-4.8-20.7-14.4-24.7 -8.2-2.8-18.8-4.2-31.6-4.2H61.7V186.8zM163 264.3c0-13.9-5.7-23.5-17-28.7 -6.3-2.9-15.3-4.4-26.8-4.5H61.7v71.3h56.6c11.6 0 20.6-1.5 27.1-4.7C157.1 291.9 163 280.8 163 264.3zM428.4 220.7c1.3 8.8 1.9 21.5 1.7 38.1H290.5c0.8 19.3 7.4 32.7 20 40.4 7.6 4.8 16.8 7.2 27.6 7.2 11.4 0 20.7-2.9 27.8-8.8 3.9-3.1 7.3-7.6 10.3-13.2h51.2c-1.3 11.4-7.5 22.9-18.6 34.6 -17.2 18.6-41.2 28-72.1 28 -25.5 0-48-7.9-67.5-23.6C249.8 307.8 240 282.2 240 246.7c0-33.3 8.8-58.7 26.4-76.4 17.7-17.8 40.5-26.6 68.6-26.6 16.7 0 31.7 3 45.1 9 13.4 6 24.4 15.4 33.1 28.4C421 192.5 426.1 205.7 428.4 220.7zM378.1 225.7c-0.9-13.3-5.4-23.4-13.4-30.3 -7.9-6.9-17.9-10.4-29.7-10.4 -12.9 0-22.8 3.7-29.9 11 -7.1 7.3-11.5 17.2-13.4 29.7h86.4V225.7z"/></symbol>


	<!-- GITHUB -->
	<symbol id="github" xmlns="http://www.w3.org/2000/svg" version="1.1" x="0" y="0" viewBox="0 0 438.5 438.5" xml:space="preserve"><path d="M409.1 114.6c-19.6-33.6-46.2-60.2-79.8-79.8C295.7 15.2 259.1 5.4 219.3 5.4c-39.8 0-76.5 9.8-110.1 29.4 -33.6 19.6-60.2 46.2-79.8 79.8C9.8 148.2 0 184.9 0 224.6c0 47.8 13.9 90.7 41.8 128.9 27.9 38.2 63.9 64.6 108.1 79.2 5.1 1 8.9 0.3 11.4-2 2.5-2.3 3.7-5.1 3.7-8.6 0-0.6 0-5.7-0.1-15.4 -0.1-9.7-0.1-18.2-0.1-25.4l-6.6 1.1c-4.2 0.8-9.5 1.1-15.8 1 -6.4-0.1-13-0.8-19.8-2 -6.9-1.2-13.2-4.1-19.1-8.6 -5.9-4.5-10.1-10.3-12.6-17.6l-2.9-6.6c-1.9-4.4-4.9-9.2-9-14.6 -4.1-5.3-8.2-8.9-12.4-10.8l-2-1.4c-1.3-1-2.6-2.1-3.7-3.4 -1.1-1.3-2-2.7-2.6-4 -0.6-1.3-0.1-2.4 1.4-3.3 1.5-0.9 4.3-1.3 8.3-1.3l5.7 0.9c3.8 0.8 8.5 3 14.1 6.9 5.6 3.8 10.2 8.8 13.8 14.8 4.4 7.8 9.7 13.8 15.8 17.8 6.2 4.1 12.4 6.1 18.7 6.1 6.3 0 11.7-0.5 16.3-1.4 4.6-1 8.8-2.4 12.8-4.3 1.7-12.8 6.4-22.6 14-29.4 -10.8-1.1-20.6-2.9-29.3-5.1 -8.7-2.3-17.6-6-26.8-11.1 -9.2-5.1-16.9-11.5-23-19.1 -6.1-7.6-11.1-17.6-15-30 -3.9-12.4-5.9-26.6-5.9-42.8 0-23 7.5-42.6 22.6-58.8 -7-17.3-6.4-36.7 2-58.2 5.5-1.7 13.7-0.4 24.6 3.9 10.9 4.3 18.8 8 23.8 11 5 3 9.1 5.6 12.1 7.7 17.7-4.9 36-7.4 54.8-7.4s37.1 2.5 54.8 7.4l10.8-6.8c7.4-4.6 16.2-8.8 26.3-12.6 10.1-3.8 17.8-4.9 23.1-3.1 8.6 21.5 9.3 40.9 2.3 58.2 15 16.2 22.6 35.8 22.6 58.8 0 16.2-2 30.5-5.9 43 -3.9 12.5-8.9 22.5-15.1 30 -6.2 7.5-13.9 13.9-23.1 19 -9.2 5.1-18.2 8.9-26.8 11.1 -8.7 2.3-18.4 4-29.3 5.1 9.9 8.6 14.8 22.1 14.8 40.5v60.2c0 3.4 1.2 6.3 3.6 8.6 2.4 2.3 6.1 3 11.3 2 44.2-14.7 80.2-41.1 108.1-79.2 27.9-38.2 41.8-81.1 41.8-128.9C438.5 184.9 428.7 148.2 409.1 114.6z"/></symbol>

	<!-- TWITTER -->
	<symbol id="twitter" xmlns="http://www.w3.org/2000/svg" viewBox="0 0 100 100" xml:space="preserve"><path d="M84.8 46.6c5.1-0.4 8.5-2.7 9.8-5.8 -1.8 1.1-7.5 2.3-10.6 1.2 -0.2-0.7-0.3-1.4-0.5-2.1 -2.4-8.7-10.5-15.8-19.1-14.9 0.7-0.3 1.4-0.5 2.1-0.8 0.9-0.3 6.5-1.2 5.6-3.2 -0.7-1.7-7.5 1.3-8.7 1.7 1.7-0.6 4.4-1.7 4.7-3.6 -2.6 0.4-5.1 1.6-7 3.3 0.7-0.8 1.2-1.7 1.3-2.7C55.6 24 51.6 32.9 48.3 41.4c-2.5-2.5-4.8-4.4-6.8-5.5 -5.7-3-12.4-6.2-23.1-10.2 -0.3 3.5 1.7 8.2 7.7 11.3 -1.3-0.2-3.7 0.2-5.5 0.7 0.8 4 3.3 7.4 10.1 9 -3.1 0.2-4.7 0.9-6.2 2.4 1.4 2.8 4.9 6.1 11.1 5.4 -6.9 3-2.8 8.5 2.8 7.7C28.8 72.1 13.7 71.4 5 63.1c22.7 30.9 71.9 18.3 79.3-11.5 5.5 0 8.7-1.9 10.7-4.1C91.8 48.1 87.2 47.6 84.8 46.6z"/></symbol>

	<!-- LINKEDIN -->
	<symbol id="linkedin" xmlns="http://www.w3.org/2000/svg" viewBox="0 0 100 100" xml:space="preserve"><path d="M95 59.7V93H75.7V62c0-7.8-2.8-13.1-9.8-13.1 -5.3 0-8.5 3.6-9.9 7.1 -0.5 1.2-0.6 3-0.6 4.7V93H36.1c0 0 0.3-52.6 0-58h19.3v8.2c0 0.1-0.1 0.1-0.1 0.2h0.1v-0.2c2.6-3.9 7.1-9.6 17.4-9.6C85.5 33.6 95 41.9 95 59.7zM15.9 7C9.3 7 5 11.3 5 17c0 5.6 4.2 10 10.7 10h0.1c6.7 0 10.9-4.5 10.9-10C26.6 11.3 22.5 7 15.9 7zM6.1 93h19.3V35H6.1V93z"/></symbol>

	<!-- CODEPEN -->
	<symbol id="codepen" viewBox="0 0 120 120"><path class="outer-ring" d="M60.048 0C26.884 0 0 26.9 0 60.048s26.884 60 60 60.047c33.163 0 60.047-26.883 60.047-60.047 S93.211 0 60 0z M60.048 110.233c-27.673 0-50.186-22.514-50.186-50.186S32.375 9.9 60 9.9 c27.672 0 50.2 22.5 50.2 50.186S87.72 110.2 60 110.233z"/><path class="inner-box" d="M97.147 48.319c-0.007-0.047-0.019-0.092-0.026-0.139c-0.016-0.09-0.032-0.18-0.056-0.268 c-0.014-0.053-0.033-0.104-0.05-0.154c-0.025-0.078-0.051-0.156-0.082-0.232c-0.021-0.053-0.047-0.105-0.071-0.156 c-0.033-0.072-0.068-0.143-0.108-0.211c-0.029-0.051-0.061-0.1-0.091-0.148c-0.043-0.066-0.087-0.131-0.135-0.193 c-0.035-0.047-0.072-0.094-0.109-0.139c-0.051-0.059-0.104-0.117-0.159-0.172c-0.042-0.043-0.083-0.086-0.127-0.125 c-0.059-0.053-0.119-0.104-0.181-0.152c-0.048-0.037-0.095-0.074-0.145-0.109c-0.019-0.012-0.035-0.027-0.053-0.039L61.817 23.5 c-1.072-0.715-2.468-0.715-3.54 0L24.34 46.081c-0.018 0.012-0.034 0.027-0.053 0.039c-0.05 0.035-0.097 0.072-0.144 0.1 c-0.062 0.049-0.123 0.1-0.181 0.152c-0.045 0.039-0.086 0.082-0.128 0.125c-0.056 0.055-0.108 0.113-0.158 0.2 c-0.038 0.045-0.075 0.092-0.11 0.139c-0.047 0.062-0.092 0.127-0.134 0.193c-0.032 0.049-0.062 0.098-0.092 0.1 c-0.039 0.068-0.074 0.139-0.108 0.211c-0.024 0.051-0.05 0.104-0.071 0.156c-0.031 0.076-0.057 0.154-0.082 0.2 c-0.017 0.051-0.035 0.102-0.05 0.154c-0.023 0.088-0.039 0.178-0.056 0.268c-0.008 0.047-0.02 0.092-0.025 0.1 c-0.019 0.137-0.029 0.275-0.029 0.416V71.36c0 0.1 0 0.3 0 0.418c0.006 0 0 0.1 0 0.1 c0.017 0.1 0 0.2 0.1 0.268c0.015 0.1 0 0.1 0.1 0.154c0.025 0.1 0.1 0.2 0.1 0.2 c0.021 0.1 0 0.1 0.1 0.154c0.034 0.1 0.1 0.1 0.1 0.213c0.029 0 0.1 0.1 0.1 0.1 c0.042 0.1 0.1 0.1 0.1 0.193c0.035 0 0.1 0.1 0.1 0.139c0.05 0.1 0.1 0.1 0.2 0.2 c0.042 0 0.1 0.1 0.1 0.125c0.058 0.1 0.1 0.1 0.2 0.152c0.047 0 0.1 0.1 0.1 0.1 c0.019 0 0 0 0.1 0.039L58.277 96.64c0.536 0.4 1.2 0.5 1.8 0.537c0.616 0 1.233-0.18 1.77-0.537 l33.938-22.625c0.018-0.012 0.034-0.027 0.053-0.039c0.05-0.035 0.097-0.072 0.145-0.109c0.062-0.049 0.122-0.1 0.181-0.152 c0.044-0.039 0.085-0.082 0.127-0.125c0.056-0.055 0.108-0.113 0.159-0.172c0.037-0.045 0.074-0.09 0.109-0.139 c0.048-0.062 0.092-0.127 0.135-0.193c0.03-0.049 0.062-0.098 0.091-0.146c0.04-0.07 0.075-0.141 0.108-0.213 c0.024-0.051 0.05-0.102 0.071-0.154c0.031-0.078 0.057-0.156 0.082-0.234c0.017-0.051 0.036-0.102 0.05-0.154 c0.023-0.088 0.04-0.178 0.056-0.268c0.008-0.045 0.02-0.092 0.026-0.137c0.018-0.139 0.028-0.277 0.028-0.418V48.735 C97.176 48.6 97.2 48.5 97.1 48.319z M63.238 32.073l25.001 16.666L77.072 56.21l-13.834-9.254V32.073z M56.856 32.1 v14.883L43.023 56.21l-11.168-7.471L56.856 32.073z M29.301 54.708l7.983 5.34l-7.983 5.34V54.708z M56.856 88.022L31.855 71.4 l11.168-7.469l13.833 9.252V88.022z M60.048 67.597l-11.286-7.549l11.286-7.549l11.285 7.549L60.048 67.597z M63.238 88.022V73.14 l13.834-9.252l11.167 7.469L63.238 88.022z M90.794 65.388l-7.982-5.34l7.982-5.34V65.388z"/></symbol>

</svg>